<mxfile host="app.diagrams.net" agent="Mozilla/5.0 (Macintosh; Intel Mac OS X 10_15_7) AppleWebKit/537.36 (KHTML, like Gecko) Chrome/134.0.0.0 Safari/537.36" version="26.1.0" pages="2">
  <diagram name="aws-psychological-test" id="P-Zp6CFM5P0tKqo0ycw-">
    <mxGraphModel dx="1230" dy="765" grid="1" gridSize="10" guides="1" tooltips="1" connect="1" arrows="1" fold="1" page="1" pageScale="1" pageWidth="850" pageHeight="1100" math="0" shadow="0">
      <root>
        <mxCell id="0" />
        <mxCell id="1" parent="0" />
        <mxCell id="72xcJZv8-7tYzaxOFUJe-49" value="" style="verticalLabelPosition=bottom;verticalAlign=top;html=1;shape=mxgraph.basic.rect;fillColor2=none;strokeWidth=1;size=20;indent=5;fillColor=none;dashed=1;strokeColor=#999999;" parent="1" vertex="1">
          <mxGeometry x="890" y="80" width="140" height="480" as="geometry" />
        </mxCell>
        <mxCell id="72xcJZv8-7tYzaxOFUJe-48" value="" style="verticalLabelPosition=bottom;verticalAlign=top;html=1;shape=mxgraph.basic.rect;fillColor2=none;strokeWidth=1;size=20;indent=5;fillColor=none;dashed=1;strokeColor=#999999;" parent="1" vertex="1">
          <mxGeometry x="530" y="80" width="340" height="480" as="geometry" />
        </mxCell>
        <mxCell id="72xcJZv8-7tYzaxOFUJe-18" value="" style="verticalLabelPosition=bottom;verticalAlign=top;html=1;shape=mxgraph.basic.rect;fillColor2=none;strokeWidth=1;size=20;indent=5;fillColor=none;dashed=1;strokeColor=#999999;" parent="1" vertex="1">
          <mxGeometry x="170" y="80" width="340" height="480" as="geometry" />
        </mxCell>
        <mxCell id="OfvEVAIezdNzxBXnmX4Q-1" value="" style="sketch=0;points=[[0,0,0],[0.25,0,0],[0.5,0,0],[0.75,0,0],[1,0,0],[0,1,0],[0.25,1,0],[0.5,1,0],[0.75,1,0],[1,1,0],[0,0.25,0],[0,0.5,0],[0,0.75,0],[1,0.25,0],[1,0.5,0],[1,0.75,0]];outlineConnect=0;fontColor=#232F3E;fillColor=#7AA116;strokeColor=#ffffff;dashed=0;verticalLabelPosition=bottom;verticalAlign=top;align=center;html=1;fontSize=12;fontStyle=0;aspect=fixed;shape=mxgraph.aws4.resourceIcon;resIcon=mxgraph.aws4.s3;" parent="1" vertex="1">
          <mxGeometry x="400" y="440" width="80" height="80" as="geometry" />
        </mxCell>
        <mxCell id="72xcJZv8-7tYzaxOFUJe-1" value="" style="sketch=0;outlineConnect=0;fontColor=#232F3E;gradientColor=none;fillColor=#232F3D;strokeColor=none;dashed=0;verticalLabelPosition=bottom;verticalAlign=top;align=center;html=1;fontSize=12;fontStyle=0;aspect=fixed;pointerEvents=1;shape=mxgraph.aws4.users;" parent="1" vertex="1">
          <mxGeometry x="40" y="279.5" width="80" height="80" as="geometry" />
        </mxCell>
        <mxCell id="72xcJZv8-7tYzaxOFUJe-2" value="" style="endArrow=classic;startArrow=classic;html=1;rounded=0;fontSize=12;startSize=8;endSize=8;curved=1;entryX=0;entryY=0.5;entryDx=0;entryDy=0;entryPerimeter=0;" parent="1" source="72xcJZv8-7tYzaxOFUJe-1" target="72xcJZv8-7tYzaxOFUJe-3" edge="1">
          <mxGeometry width="50" height="50" relative="1" as="geometry">
            <mxPoint x="156" y="318" as="sourcePoint" />
            <mxPoint x="450" y="300" as="targetPoint" />
          </mxGeometry>
        </mxCell>
        <mxCell id="72xcJZv8-7tYzaxOFUJe-3" value="" style="sketch=0;points=[[0,0,0],[0.25,0,0],[0.5,0,0],[0.75,0,0],[1,0,0],[0,1,0],[0.25,1,0],[0.5,1,0],[0.75,1,0],[1,1,0],[0,0.25,0],[0,0.5,0],[0,0.75,0],[1,0.25,0],[1,0.5,0],[1,0.75,0]];outlineConnect=0;fontColor=#232F3E;fillColor=#8C4FFF;strokeColor=#ffffff;dashed=0;verticalLabelPosition=bottom;verticalAlign=top;align=center;html=1;fontSize=12;fontStyle=0;aspect=fixed;shape=mxgraph.aws4.resourceIcon;resIcon=mxgraph.aws4.cloudfront;" parent="1" vertex="1">
          <mxGeometry x="240" y="280" width="80" height="80" as="geometry" />
        </mxCell>
        <mxCell id="72xcJZv8-7tYzaxOFUJe-5" value="" style="sketch=0;points=[[0,0,0],[0.25,0,0],[0.5,0,0],[0.75,0,0],[1,0,0],[0,1,0],[0.25,1,0],[0.5,1,0],[0.75,1,0],[1,1,0],[0,0.25,0],[0,0.5,0],[0,0.75,0],[1,0.25,0],[1,0.5,0],[1,0.75,0]];outlineConnect=0;fontColor=#232F3E;fillColor=#8C4FFF;strokeColor=#ffffff;dashed=0;verticalLabelPosition=bottom;verticalAlign=top;align=center;html=1;fontSize=12;fontStyle=0;aspect=fixed;shape=mxgraph.aws4.resourceIcon;resIcon=mxgraph.aws4.route_53;" parent="1" vertex="1">
          <mxGeometry x="240" y="120" width="80" height="80" as="geometry" />
        </mxCell>
        <mxCell id="72xcJZv8-7tYzaxOFUJe-10" value="" style="group" parent="1" vertex="1" connectable="0">
          <mxGeometry x="200" y="160" height="160" as="geometry" />
        </mxCell>
        <mxCell id="72xcJZv8-7tYzaxOFUJe-8" value="" style="endArrow=classic;html=1;rounded=0;fontSize=12;startSize=8;endSize=8;curved=1;entryX=0;entryY=0.5;entryDx=0;entryDy=0;entryPerimeter=0;" parent="72xcJZv8-7tYzaxOFUJe-10" target="72xcJZv8-7tYzaxOFUJe-5" edge="1">
          <mxGeometry width="50" height="50" relative="1" as="geometry">
            <mxPoint as="sourcePoint" />
            <mxPoint x="120" y="66.66666666666667" as="targetPoint" />
          </mxGeometry>
        </mxCell>
        <mxCell id="72xcJZv8-7tYzaxOFUJe-9" value="" style="endArrow=none;html=1;rounded=0;fontSize=12;startSize=8;endSize=8;curved=1;" parent="72xcJZv8-7tYzaxOFUJe-10" edge="1">
          <mxGeometry width="50" height="50" relative="1" as="geometry">
            <mxPoint y="160" as="sourcePoint" />
            <mxPoint as="targetPoint" />
          </mxGeometry>
        </mxCell>
        <mxCell id="72xcJZv8-7tYzaxOFUJe-11" value="&lt;b&gt;Route53&lt;/b&gt;" style="text;html=1;align=center;verticalAlign=middle;resizable=0;points=[];autosize=1;strokeColor=none;fillColor=none;fontSize=16;" parent="1" vertex="1">
          <mxGeometry x="235" y="200" width="90" height="30" as="geometry" />
        </mxCell>
        <mxCell id="72xcJZv8-7tYzaxOFUJe-13" value="" style="sketch=0;points=[[0,0,0],[0.25,0,0],[0.5,0,0],[0.75,0,0],[1,0,0],[0,1,0],[0.25,1,0],[0.5,1,0],[0.75,1,0],[1,1,0],[0,0.25,0],[0,0.5,0],[0,0.75,0],[1,0.25,0],[1,0.5,0],[1,0.75,0]];outlineConnect=0;fontColor=#232F3E;fillColor=#DD344C;strokeColor=#ffffff;dashed=0;verticalLabelPosition=bottom;verticalAlign=top;align=center;html=1;fontSize=12;fontStyle=0;aspect=fixed;shape=mxgraph.aws4.resourceIcon;resIcon=mxgraph.aws4.private_certificate_authority;" parent="1" vertex="1">
          <mxGeometry x="240" y="440" width="80" height="80" as="geometry" />
        </mxCell>
        <mxCell id="72xcJZv8-7tYzaxOFUJe-14" value="" style="endArrow=none;dashed=1;html=1;rounded=0;fontSize=12;startSize=8;endSize=8;curved=1;exitX=0.5;exitY=0;exitDx=0;exitDy=0;exitPerimeter=0;entryX=0.5;entryY=1;entryDx=0;entryDy=0;entryPerimeter=0;" parent="1" source="72xcJZv8-7tYzaxOFUJe-13" target="72xcJZv8-7tYzaxOFUJe-3" edge="1">
          <mxGeometry width="50" height="50" relative="1" as="geometry">
            <mxPoint x="400" y="330" as="sourcePoint" />
            <mxPoint x="450" y="280" as="targetPoint" />
          </mxGeometry>
        </mxCell>
        <mxCell id="72xcJZv8-7tYzaxOFUJe-20" value="" style="sketch=0;points=[[0,0,0],[0.25,0,0],[0.5,0,0],[0.75,0,0],[1,0,0],[0,1,0],[0.25,1,0],[0.5,1,0],[0.75,1,0],[1,1,0],[0,0.25,0],[0,0.5,0],[0,0.75,0],[1,0.25,0],[1,0.5,0],[1,0.75,0]];outlineConnect=0;fontColor=#232F3E;fillColor=#8C4FFF;strokeColor=#ffffff;dashed=0;verticalLabelPosition=bottom;verticalAlign=top;align=center;html=1;fontSize=12;fontStyle=0;aspect=fixed;shape=mxgraph.aws4.resourceIcon;resIcon=mxgraph.aws4.api_gateway;" parent="1" vertex="1">
          <mxGeometry x="560" y="280" width="80" height="80" as="geometry" />
        </mxCell>
        <mxCell id="72xcJZv8-7tYzaxOFUJe-21" value="" style="endArrow=classic;startArrow=classic;html=1;rounded=0;fontSize=12;startSize=8;endSize=8;curved=1;exitX=1;exitY=0.5;exitDx=0;exitDy=0;exitPerimeter=0;" parent="1" source="72xcJZv8-7tYzaxOFUJe-3" target="72xcJZv8-7tYzaxOFUJe-20" edge="1">
          <mxGeometry width="50" height="50" relative="1" as="geometry">
            <mxPoint x="530" y="450" as="sourcePoint" />
            <mxPoint x="580" y="400" as="targetPoint" />
          </mxGeometry>
        </mxCell>
        <mxCell id="72xcJZv8-7tYzaxOFUJe-26" value="" style="endArrow=classic;html=1;rounded=0;fontSize=12;startSize=8;endSize=8;curved=1;" parent="1" target="OfvEVAIezdNzxBXnmX4Q-1" edge="1">
          <mxGeometry width="50" height="50" relative="1" as="geometry">
            <mxPoint x="440" y="340" as="sourcePoint" />
            <mxPoint x="520" y="250" as="targetPoint" />
          </mxGeometry>
        </mxCell>
        <mxCell id="72xcJZv8-7tYzaxOFUJe-27" value="" style="endArrow=classic;html=1;rounded=0;fontSize=12;startSize=8;endSize=8;curved=1;entryX=1;entryY=0.75;entryDx=0;entryDy=0;entryPerimeter=0;" parent="1" target="72xcJZv8-7tYzaxOFUJe-3" edge="1">
          <mxGeometry width="50" height="50" relative="1" as="geometry">
            <mxPoint x="440" y="340" as="sourcePoint" />
            <mxPoint x="490" y="240" as="targetPoint" />
          </mxGeometry>
        </mxCell>
        <mxCell id="72xcJZv8-7tYzaxOFUJe-28" value="" style="sketch=0;points=[[0,0,0],[0.25,0,0],[0.5,0,0],[0.75,0,0],[1,0,0],[0,1,0],[0.25,1,0],[0.5,1,0],[0.75,1,0],[1,1,0],[0,0.25,0],[0,0.5,0],[0,0.75,0],[1,0.25,0],[1,0.5,0],[1,0.75,0]];outlineConnect=0;fontColor=#232F3E;fillColor=#ED7100;strokeColor=#ffffff;dashed=0;verticalLabelPosition=bottom;verticalAlign=top;align=center;html=1;fontSize=12;fontStyle=0;aspect=fixed;shape=mxgraph.aws4.resourceIcon;resIcon=mxgraph.aws4.lambda;" parent="1" vertex="1">
          <mxGeometry x="720" y="280" width="80" height="80" as="geometry" />
        </mxCell>
        <mxCell id="72xcJZv8-7tYzaxOFUJe-29" value="" style="endArrow=classic;startArrow=classic;html=1;rounded=0;fontSize=12;startSize=8;endSize=8;curved=1;exitX=1;exitY=0.5;exitDx=0;exitDy=0;exitPerimeter=0;entryX=0;entryY=0.5;entryDx=0;entryDy=0;entryPerimeter=0;" parent="1" source="72xcJZv8-7tYzaxOFUJe-20" target="72xcJZv8-7tYzaxOFUJe-28" edge="1">
          <mxGeometry width="50" height="50" relative="1" as="geometry">
            <mxPoint x="700" y="320" as="sourcePoint" />
            <mxPoint x="750" y="270" as="targetPoint" />
          </mxGeometry>
        </mxCell>
        <mxCell id="72xcJZv8-7tYzaxOFUJe-30" value="" style="sketch=0;points=[[0,0,0],[0.25,0,0],[0.5,0,0],[0.75,0,0],[1,0,0],[0,1,0],[0.25,1,0],[0.5,1,0],[0.75,1,0],[1,1,0],[0,0.25,0],[0,0.5,0],[0,0.75,0],[1,0.25,0],[1,0.5,0],[1,0.75,0]];outlineConnect=0;fontColor=#232F3E;fillColor=#C925D1;strokeColor=#ffffff;dashed=0;verticalLabelPosition=bottom;verticalAlign=top;align=center;html=1;fontSize=12;fontStyle=0;aspect=fixed;shape=mxgraph.aws4.resourceIcon;resIcon=mxgraph.aws4.dynamodb;" parent="1" vertex="1">
          <mxGeometry x="920" y="160" width="80" height="80" as="geometry" />
        </mxCell>
        <mxCell id="72xcJZv8-7tYzaxOFUJe-32" value="Cloudfr&lt;span style=&quot;color: rgba(0, 0, 0, 0); font-family: monospace; font-size: 0px; text-align: start;&quot;&gt;%3CmxGraphModel%3E%3Croot%3E%3CmxCell%20id%3D%220%22%2F%3E%3CmxCell%20id%3D%221%22%20parent%3D%220%22%2F%3E%3CmxCell%20id%3D%222%22%20value%3D%22Route53%22%20style%3D%22text%3Bhtml%3D1%3Balign%3Dcenter%3BverticalAlign%3Dmiddle%3Bresizable%3D0%3Bpoints%3D%5B%5D%3Bautosize%3D1%3BstrokeColor%3Dnone%3BfillColor%3Dnone%3BfontSize%3D16%3B%22%20vertex%3D%221%22%20parent%3D%221%22%3E%3CmxGeometry%20x%3D%22200%22%20y%3D%22200%22%20width%3D%2280%22%20height%3D%2230%22%20as%3D%22geometry%22%2F%3E%3C%2FmxCell%3E%3C%2Froot%3E%3C%2FmxGraphModel%3E&lt;/span&gt;ont" style="text;html=1;align=center;verticalAlign=middle;resizable=0;points=[];autosize=1;strokeColor=none;fillColor=none;fontSize=16;fontStyle=1" parent="1" vertex="1">
          <mxGeometry x="231" y="360" width="100" height="30" as="geometry" />
        </mxCell>
        <mxCell id="72xcJZv8-7tYzaxOFUJe-33" value="ACM" style="text;html=1;align=center;verticalAlign=middle;resizable=0;points=[];autosize=1;strokeColor=none;fillColor=none;fontSize=16;fontStyle=1" parent="1" vertex="1">
          <mxGeometry x="250" y="520" width="60" height="30" as="geometry" />
        </mxCell>
        <mxCell id="72xcJZv8-7tYzaxOFUJe-34" value="S3" style="text;html=1;align=center;verticalAlign=middle;resizable=0;points=[];autosize=1;strokeColor=none;fillColor=none;fontSize=16;fontStyle=1" parent="1" vertex="1">
          <mxGeometry x="420" y="520" width="40" height="30" as="geometry" />
        </mxCell>
        <mxCell id="72xcJZv8-7tYzaxOFUJe-35" value="API Gateway" style="text;html=1;align=center;verticalAlign=middle;resizable=0;points=[];autosize=1;strokeColor=none;fillColor=none;fontSize=16;fontStyle=1" parent="1" vertex="1">
          <mxGeometry x="540" y="360" width="120" height="30" as="geometry" />
        </mxCell>
        <mxCell id="72xcJZv8-7tYzaxOFUJe-36" value="Lambda" style="text;html=1;align=center;verticalAlign=middle;resizable=0;points=[];autosize=1;strokeColor=none;fillColor=none;fontSize=16;fontStyle=1" parent="1" vertex="1">
          <mxGeometry x="720" y="360" width="80" height="30" as="geometry" />
        </mxCell>
        <mxCell id="72xcJZv8-7tYzaxOFUJe-37" value="DynamoDB" style="text;html=1;align=center;verticalAlign=middle;resizable=0;points=[];autosize=1;strokeColor=none;fillColor=none;fontSize=16;fontStyle=1" parent="1" vertex="1">
          <mxGeometry x="905.25" y="240" width="110" height="30" as="geometry" />
        </mxCell>
        <mxCell id="72xcJZv8-7tYzaxOFUJe-40" value="" style="sketch=0;points=[[0,0,0],[0.25,0,0],[0.5,0,0],[0.75,0,0],[1,0,0],[0,1,0],[0.25,1,0],[0.5,1,0],[0.75,1,0],[1,1,0],[0,0.25,0],[0,0.5,0],[0,0.75,0],[1,0.25,0],[1,0.5,0],[1,0.75,0]];outlineConnect=0;fontColor=#232F3E;fillColor=#01A88D;strokeColor=#ffffff;dashed=0;verticalLabelPosition=bottom;verticalAlign=top;align=center;html=1;fontSize=12;fontStyle=0;aspect=fixed;shape=mxgraph.aws4.resourceIcon;resIcon=mxgraph.aws4.bedrock;" parent="1" vertex="1">
          <mxGeometry x="719.5" y="120" width="80.5" height="80.5" as="geometry" />
        </mxCell>
        <mxCell id="72xcJZv8-7tYzaxOFUJe-42" value="" style="sketch=0;points=[[0,0,0],[0.25,0,0],[0.5,0,0],[0.75,0,0],[1,0,0],[0,1,0],[0.25,1,0],[0.5,1,0],[0.75,1,0],[1,1,0],[0,0.25,0],[0,0.5,0],[0,0.75,0],[1,0.25,0],[1,0.5,0],[1,0.75,0]];outlineConnect=0;fontColor=#232F3E;fillColor=#7AA116;strokeColor=#ffffff;dashed=0;verticalLabelPosition=bottom;verticalAlign=top;align=center;html=1;fontSize=12;fontStyle=0;aspect=fixed;shape=mxgraph.aws4.resourceIcon;resIcon=mxgraph.aws4.s3;" parent="1" vertex="1">
          <mxGeometry x="920" y="400" width="80" height="80" as="geometry" />
        </mxCell>
        <mxCell id="72xcJZv8-7tYzaxOFUJe-43" value="" style="endArrow=classic;html=1;rounded=0;fontSize=12;startSize=8;endSize=8;curved=1;entryX=0;entryY=0.5;entryDx=0;entryDy=0;entryPerimeter=0;exitX=0.912;exitY=0.25;exitDx=0;exitDy=0;exitPerimeter=0;" parent="1" source="72xcJZv8-7tYzaxOFUJe-48" target="72xcJZv8-7tYzaxOFUJe-30" edge="1">
          <mxGeometry width="50" height="50" relative="1" as="geometry">
            <mxPoint x="840" y="240" as="sourcePoint" />
            <mxPoint x="840" y="320" as="targetPoint" />
          </mxGeometry>
        </mxCell>
        <mxCell id="72xcJZv8-7tYzaxOFUJe-44" value="" style="endArrow=classic;html=1;rounded=0;fontSize=12;startSize=8;endSize=8;curved=1;exitX=0.912;exitY=0.75;exitDx=0;exitDy=0;exitPerimeter=0;" parent="1" source="72xcJZv8-7tYzaxOFUJe-48" target="72xcJZv8-7tYzaxOFUJe-42" edge="1">
          <mxGeometry width="50" height="50" relative="1" as="geometry">
            <mxPoint x="840" y="399.6" as="sourcePoint" />
            <mxPoint x="880" y="399.6" as="targetPoint" />
          </mxGeometry>
        </mxCell>
        <mxCell id="72xcJZv8-7tYzaxOFUJe-45" value="" style="endArrow=none;html=1;rounded=0;fontSize=12;startSize=8;endSize=8;curved=1;" parent="1" edge="1">
          <mxGeometry width="50" height="50" relative="1" as="geometry">
            <mxPoint x="840" y="440" as="sourcePoint" />
            <mxPoint x="840" y="200" as="targetPoint" />
          </mxGeometry>
        </mxCell>
        <mxCell id="72xcJZv8-7tYzaxOFUJe-46" value="" style="endArrow=classic;html=1;rounded=0;fontSize=12;startSize=8;endSize=8;curved=1;entryX=1;entryY=0.5;entryDx=0;entryDy=0;entryPerimeter=0;" parent="1" target="72xcJZv8-7tYzaxOFUJe-28" edge="1">
          <mxGeometry width="50" height="50" relative="1" as="geometry">
            <mxPoint x="840" y="320" as="sourcePoint" />
            <mxPoint x="790" y="320" as="targetPoint" />
          </mxGeometry>
        </mxCell>
        <mxCell id="72xcJZv8-7tYzaxOFUJe-50" value="&lt;b&gt;User Interface&lt;/b&gt;" style="text;html=1;align=center;verticalAlign=middle;resizable=0;points=[];autosize=1;strokeColor=none;fillColor=none;fontSize=16;" parent="1" vertex="1">
          <mxGeometry x="275" y="50" width="130" height="30" as="geometry" />
        </mxCell>
        <mxCell id="72xcJZv8-7tYzaxOFUJe-51" value="&lt;b&gt;Application &amp;amp; Compute&lt;/b&gt;" style="text;html=1;align=center;verticalAlign=middle;resizable=0;points=[];autosize=1;strokeColor=none;fillColor=none;fontSize=16;" parent="1" vertex="1">
          <mxGeometry x="600" y="50" width="200" height="30" as="geometry" />
        </mxCell>
        <mxCell id="72xcJZv8-7tYzaxOFUJe-53" value="&lt;b&gt;Data Store&lt;/b&gt;" style="text;html=1;align=center;verticalAlign=middle;resizable=0;points=[];autosize=1;strokeColor=none;fillColor=none;fontSize=16;" parent="1" vertex="1">
          <mxGeometry x="910.25" y="50" width="100" height="30" as="geometry" />
        </mxCell>
        <mxCell id="72xcJZv8-7tYzaxOFUJe-54" value="Bedrock" style="text;html=1;align=center;verticalAlign=middle;resizable=0;points=[];autosize=1;strokeColor=none;fillColor=none;fontSize=16;fontStyle=1" parent="1" vertex="1">
          <mxGeometry x="720" y="200" width="80" height="30" as="geometry" />
        </mxCell>
        <mxCell id="72xcJZv8-7tYzaxOFUJe-55" value="S3" style="text;html=1;align=center;verticalAlign=middle;resizable=0;points=[];autosize=1;strokeColor=none;fillColor=none;fontSize=16;fontStyle=1" parent="1" vertex="1">
          <mxGeometry x="940.25" y="480" width="40" height="30" as="geometry" />
        </mxCell>
        <mxCell id="O5yjSVdJYZX4ooAcDFDy-1" value="" style="endArrow=classic;startArrow=classic;html=1;rounded=0;fontSize=12;startSize=8;endSize=8;curved=1;entryX=0.492;entryY=1.054;entryDx=0;entryDy=0;entryPerimeter=0;exitX=0.5;exitY=0;exitDx=0;exitDy=0;exitPerimeter=0;" edge="1" parent="1" source="72xcJZv8-7tYzaxOFUJe-28" target="72xcJZv8-7tYzaxOFUJe-54">
          <mxGeometry width="50" height="50" relative="1" as="geometry">
            <mxPoint x="670" y="310" as="sourcePoint" />
            <mxPoint x="720" y="260" as="targetPoint" />
          </mxGeometry>
        </mxCell>
      </root>
    </mxGraphModel>
  </diagram>
  <diagram id="boVVIXvsLw7-GjOwjEAN" name="Page-2">
    <mxGraphModel dx="1088" dy="677" grid="1" gridSize="10" guides="1" tooltips="1" connect="1" arrows="1" fold="1" page="0" pageScale="1" pageWidth="850" pageHeight="1100" math="0" shadow="0">
      <root>
        <mxCell id="0" />
        <mxCell id="1" parent="0" />
        <mxCell id="ICCVcv-7TyuauT3s8LsY-1" value="" style="verticalLabelPosition=bottom;verticalAlign=top;html=1;shape=mxgraph.basic.rect;fillColor2=none;strokeWidth=1;size=20;indent=5;fillColor=none;dashed=1;strokeColor=#999999;" vertex="1" parent="1">
          <mxGeometry x="960" y="39.5" width="180" height="520.5" as="geometry" />
        </mxCell>
        <mxCell id="ICCVcv-7TyuauT3s8LsY-2" value="" style="verticalLabelPosition=bottom;verticalAlign=top;html=1;shape=mxgraph.basic.rect;fillColor2=none;strokeWidth=1;size=20;indent=5;fillColor=none;dashed=1;strokeColor=#999999;" vertex="1" parent="1">
          <mxGeometry x="490" y="40" width="450" height="520" as="geometry" />
        </mxCell>
        <mxCell id="ICCVcv-7TyuauT3s8LsY-3" value="" style="verticalLabelPosition=bottom;verticalAlign=top;html=1;shape=mxgraph.basic.rect;fillColor2=none;strokeWidth=1;size=20;indent=5;fillColor=none;dashed=1;strokeColor=#999999;" vertex="1" parent="1">
          <mxGeometry x="130" y="40" width="340" height="520" as="geometry" />
        </mxCell>
        <mxCell id="ICCVcv-7TyuauT3s8LsY-4" value="" style="sketch=0;points=[[0,0,0],[0.25,0,0],[0.5,0,0],[0.75,0,0],[1,0,0],[0,1,0],[0.25,1,0],[0.5,1,0],[0.75,1,0],[1,1,0],[0,0.25,0],[0,0.5,0],[0,0.75,0],[1,0.25,0],[1,0.5,0],[1,0.75,0]];outlineConnect=0;fontColor=#232F3E;fillColor=#7AA116;strokeColor=#ffffff;dashed=0;verticalLabelPosition=bottom;verticalAlign=top;align=center;html=1;fontSize=12;fontStyle=0;aspect=fixed;shape=mxgraph.aws4.resourceIcon;resIcon=mxgraph.aws4.s3;" vertex="1" parent="1">
          <mxGeometry x="360" y="400" width="80" height="80" as="geometry" />
        </mxCell>
        <mxCell id="ICCVcv-7TyuauT3s8LsY-5" value="" style="sketch=0;outlineConnect=0;fontColor=#232F3E;gradientColor=none;fillColor=#232F3D;strokeColor=none;dashed=0;verticalLabelPosition=bottom;verticalAlign=top;align=center;html=1;fontSize=12;fontStyle=0;aspect=fixed;pointerEvents=1;shape=mxgraph.aws4.users;" vertex="1" parent="1">
          <mxGeometry y="239.5" width="80" height="80" as="geometry" />
        </mxCell>
        <mxCell id="ICCVcv-7TyuauT3s8LsY-6" value="" style="endArrow=classic;startArrow=classic;html=1;rounded=0;fontSize=12;startSize=8;endSize=8;curved=1;entryX=0;entryY=0.5;entryDx=0;entryDy=0;entryPerimeter=0;" edge="1" parent="1" source="ICCVcv-7TyuauT3s8LsY-5" target="ICCVcv-7TyuauT3s8LsY-7">
          <mxGeometry width="50" height="50" relative="1" as="geometry">
            <mxPoint x="116" y="278" as="sourcePoint" />
            <mxPoint x="410" y="260" as="targetPoint" />
          </mxGeometry>
        </mxCell>
        <mxCell id="ICCVcv-7TyuauT3s8LsY-7" value="" style="sketch=0;points=[[0,0,0],[0.25,0,0],[0.5,0,0],[0.75,0,0],[1,0,0],[0,1,0],[0.25,1,0],[0.5,1,0],[0.75,1,0],[1,1,0],[0,0.25,0],[0,0.5,0],[0,0.75,0],[1,0.25,0],[1,0.5,0],[1,0.75,0]];outlineConnect=0;fontColor=#232F3E;fillColor=#8C4FFF;strokeColor=#ffffff;dashed=0;verticalLabelPosition=bottom;verticalAlign=top;align=center;html=1;fontSize=12;fontStyle=0;aspect=fixed;shape=mxgraph.aws4.resourceIcon;resIcon=mxgraph.aws4.cloudfront;" vertex="1" parent="1">
          <mxGeometry x="200" y="240" width="80" height="80" as="geometry" />
        </mxCell>
        <mxCell id="ICCVcv-7TyuauT3s8LsY-9" value="" style="group" vertex="1" connectable="0" parent="1">
          <mxGeometry x="160" y="120" height="160" as="geometry" />
        </mxCell>
        <mxCell id="ICCVcv-7TyuauT3s8LsY-10" value="" style="endArrow=classic;html=1;rounded=0;fontSize=12;startSize=8;endSize=8;curved=1;entryX=0;entryY=0.5;entryDx=0;entryDy=0;entryPerimeter=0;" edge="1" parent="ICCVcv-7TyuauT3s8LsY-9">
          <mxGeometry width="50" height="50" relative="1" as="geometry">
            <mxPoint as="sourcePoint" />
            <mxPoint x="40" as="targetPoint" />
          </mxGeometry>
        </mxCell>
        <mxCell id="ICCVcv-7TyuauT3s8LsY-11" value="" style="endArrow=none;html=1;rounded=0;fontSize=12;startSize=8;endSize=8;curved=1;" edge="1" parent="ICCVcv-7TyuauT3s8LsY-9">
          <mxGeometry width="50" height="50" relative="1" as="geometry">
            <mxPoint y="160" as="sourcePoint" />
            <mxPoint as="targetPoint" />
          </mxGeometry>
        </mxCell>
        <mxCell id="ICCVcv-7TyuauT3s8LsY-12" value="&lt;b&gt;namecheap&lt;/b&gt;" style="text;html=1;align=center;verticalAlign=middle;resizable=0;points=[];autosize=1;strokeColor=none;fillColor=none;fontSize=16;" vertex="1" parent="1">
          <mxGeometry x="186" y="160.5" width="110" height="30" as="geometry" />
        </mxCell>
        <mxCell id="ICCVcv-7TyuauT3s8LsY-13" value="" style="sketch=0;points=[[0,0,0],[0.25,0,0],[0.5,0,0],[0.75,0,0],[1,0,0],[0,1,0],[0.25,1,0],[0.5,1,0],[0.75,1,0],[1,1,0],[0,0.25,0],[0,0.5,0],[0,0.75,0],[1,0.25,0],[1,0.5,0],[1,0.75,0]];outlineConnect=0;fontColor=#232F3E;fillColor=#DD344C;strokeColor=#ffffff;dashed=0;verticalLabelPosition=bottom;verticalAlign=top;align=center;html=1;fontSize=12;fontStyle=0;aspect=fixed;shape=mxgraph.aws4.resourceIcon;resIcon=mxgraph.aws4.private_certificate_authority;" vertex="1" parent="1">
          <mxGeometry x="200" y="400" width="80" height="80" as="geometry" />
        </mxCell>
        <mxCell id="ICCVcv-7TyuauT3s8LsY-14" value="" style="endArrow=none;dashed=1;html=1;rounded=0;fontSize=12;startSize=8;endSize=8;curved=1;exitX=0.5;exitY=0;exitDx=0;exitDy=0;exitPerimeter=0;entryX=0.5;entryY=1;entryDx=0;entryDy=0;entryPerimeter=0;" edge="1" parent="1" source="ICCVcv-7TyuauT3s8LsY-13" target="ICCVcv-7TyuauT3s8LsY-7">
          <mxGeometry width="50" height="50" relative="1" as="geometry">
            <mxPoint x="360" y="290" as="sourcePoint" />
            <mxPoint x="410" y="240" as="targetPoint" />
          </mxGeometry>
        </mxCell>
        <mxCell id="ICCVcv-7TyuauT3s8LsY-15" value="" style="sketch=0;points=[[0,0,0],[0.25,0,0],[0.5,0,0],[0.75,0,0],[1,0,0],[0,1,0],[0.25,1,0],[0.5,1,0],[0.75,1,0],[1,1,0],[0,0.25,0],[0,0.5,0],[0,0.75,0],[1,0.25,0],[1,0.5,0],[1,0.75,0]];outlineConnect=0;fontColor=#232F3E;fillColor=#8C4FFF;strokeColor=#ffffff;dashed=0;verticalLabelPosition=bottom;verticalAlign=top;align=center;html=1;fontSize=12;fontStyle=0;aspect=fixed;shape=mxgraph.aws4.resourceIcon;resIcon=mxgraph.aws4.api_gateway;" vertex="1" parent="1">
          <mxGeometry x="520" y="240" width="80" height="80" as="geometry" />
        </mxCell>
        <mxCell id="ICCVcv-7TyuauT3s8LsY-16" value="" style="endArrow=classic;startArrow=classic;html=1;rounded=0;fontSize=12;startSize=8;endSize=8;curved=1;exitX=1;exitY=0.5;exitDx=0;exitDy=0;exitPerimeter=0;" edge="1" parent="1" source="ICCVcv-7TyuauT3s8LsY-7" target="ICCVcv-7TyuauT3s8LsY-15">
          <mxGeometry width="50" height="50" relative="1" as="geometry">
            <mxPoint x="490" y="410" as="sourcePoint" />
            <mxPoint x="540" y="360" as="targetPoint" />
          </mxGeometry>
        </mxCell>
        <mxCell id="ICCVcv-7TyuauT3s8LsY-17" value="" style="endArrow=classic;html=1;rounded=0;fontSize=12;startSize=8;endSize=8;curved=1;" edge="1" parent="1" target="ICCVcv-7TyuauT3s8LsY-4">
          <mxGeometry width="50" height="50" relative="1" as="geometry">
            <mxPoint x="400" y="300" as="sourcePoint" />
            <mxPoint x="480" y="210" as="targetPoint" />
          </mxGeometry>
        </mxCell>
        <mxCell id="ICCVcv-7TyuauT3s8LsY-18" value="" style="endArrow=classic;html=1;rounded=0;fontSize=12;startSize=8;endSize=8;curved=1;entryX=1;entryY=0.75;entryDx=0;entryDy=0;entryPerimeter=0;" edge="1" parent="1" target="ICCVcv-7TyuauT3s8LsY-7">
          <mxGeometry width="50" height="50" relative="1" as="geometry">
            <mxPoint x="400" y="300" as="sourcePoint" />
            <mxPoint x="450" y="200" as="targetPoint" />
          </mxGeometry>
        </mxCell>
        <mxCell id="ICCVcv-7TyuauT3s8LsY-19" value="" style="sketch=0;points=[[0,0,0],[0.25,0,0],[0.5,0,0],[0.75,0,0],[1,0,0],[0,1,0],[0.25,1,0],[0.5,1,0],[0.75,1,0],[1,1,0],[0,0.25,0],[0,0.5,0],[0,0.75,0],[1,0.25,0],[1,0.5,0],[1,0.75,0]];outlineConnect=0;fontColor=#232F3E;fillColor=#ED7100;strokeColor=#ffffff;dashed=0;verticalLabelPosition=bottom;verticalAlign=top;align=center;html=1;fontSize=12;fontStyle=0;aspect=fixed;shape=mxgraph.aws4.resourceIcon;resIcon=mxgraph.aws4.lambda;" vertex="1" parent="1">
          <mxGeometry x="840" y="159.5" width="80" height="80" as="geometry" />
        </mxCell>
        <mxCell id="ICCVcv-7TyuauT3s8LsY-21" value="" style="sketch=0;points=[[0,0,0],[0.25,0,0],[0.5,0,0],[0.75,0,0],[1,0,0],[0,1,0],[0.25,1,0],[0.5,1,0],[0.75,1,0],[1,1,0],[0,0.25,0],[0,0.5,0],[0,0.75,0],[1,0.25,0],[1,0.5,0],[1,0.75,0]];outlineConnect=0;fontColor=#232F3E;fillColor=#C925D1;strokeColor=#ffffff;dashed=0;verticalLabelPosition=bottom;verticalAlign=top;align=center;html=1;fontSize=12;fontStyle=0;aspect=fixed;shape=mxgraph.aws4.resourceIcon;resIcon=mxgraph.aws4.dynamodb;" vertex="1" parent="1">
          <mxGeometry x="1040" y="240.5" width="80" height="80" as="geometry" />
        </mxCell>
        <mxCell id="ICCVcv-7TyuauT3s8LsY-22" value="Cloudfr&lt;span style=&quot;color: rgba(0, 0, 0, 0); font-family: monospace; font-size: 0px; text-align: start;&quot;&gt;%3CmxGraphModel%3E%3Croot%3E%3CmxCell%20id%3D%220%22%2F%3E%3CmxCell%20id%3D%221%22%20parent%3D%220%22%2F%3E%3CmxCell%20id%3D%222%22%20value%3D%22Route53%22%20style%3D%22text%3Bhtml%3D1%3Balign%3Dcenter%3BverticalAlign%3Dmiddle%3Bresizable%3D0%3Bpoints%3D%5B%5D%3Bautosize%3D1%3BstrokeColor%3Dnone%3BfillColor%3Dnone%3BfontSize%3D16%3B%22%20vertex%3D%221%22%20parent%3D%221%22%3E%3CmxGeometry%20x%3D%22200%22%20y%3D%22200%22%20width%3D%2280%22%20height%3D%2230%22%20as%3D%22geometry%22%2F%3E%3C%2FmxCell%3E%3C%2Froot%3E%3C%2FmxGraphModel%3E&lt;/span&gt;ont" style="text;html=1;align=center;verticalAlign=middle;resizable=0;points=[];autosize=1;strokeColor=none;fillColor=none;fontSize=16;fontStyle=1" vertex="1" parent="1">
          <mxGeometry x="191" y="320" width="100" height="30" as="geometry" />
        </mxCell>
        <mxCell id="ICCVcv-7TyuauT3s8LsY-23" value="ACM" style="text;html=1;align=center;verticalAlign=middle;resizable=0;points=[];autosize=1;strokeColor=none;fillColor=none;fontSize=16;fontStyle=1" vertex="1" parent="1">
          <mxGeometry x="210" y="480" width="60" height="30" as="geometry" />
        </mxCell>
        <mxCell id="ICCVcv-7TyuauT3s8LsY-24" value="S3" style="text;html=1;align=center;verticalAlign=middle;resizable=0;points=[];autosize=1;strokeColor=none;fillColor=none;fontSize=16;fontStyle=1" vertex="1" parent="1">
          <mxGeometry x="380" y="480" width="40" height="30" as="geometry" />
        </mxCell>
        <mxCell id="ICCVcv-7TyuauT3s8LsY-25" value="API Gateway" style="text;html=1;align=center;verticalAlign=middle;resizable=0;points=[];autosize=1;strokeColor=none;fillColor=none;fontSize=16;fontStyle=1" vertex="1" parent="1">
          <mxGeometry x="500" y="320" width="120" height="30" as="geometry" />
        </mxCell>
        <mxCell id="ICCVcv-7TyuauT3s8LsY-26" value="Lambda" style="text;html=1;align=center;verticalAlign=middle;resizable=0;points=[];autosize=1;strokeColor=none;fillColor=none;fontSize=16;fontStyle=1" vertex="1" parent="1">
          <mxGeometry x="840" y="239.5" width="80" height="30" as="geometry" />
        </mxCell>
        <mxCell id="ICCVcv-7TyuauT3s8LsY-27" value="DynamoDB" style="text;html=1;align=center;verticalAlign=middle;resizable=0;points=[];autosize=1;strokeColor=none;fillColor=none;fontSize=16;fontStyle=1" vertex="1" parent="1">
          <mxGeometry x="1025" y="319.5" width="110" height="30" as="geometry" />
        </mxCell>
        <mxCell id="ICCVcv-7TyuauT3s8LsY-30" value="" style="endArrow=classic;html=1;rounded=0;fontSize=12;startSize=8;endSize=8;curved=1;entryX=0;entryY=0.5;entryDx=0;entryDy=0;entryPerimeter=0;" edge="1" parent="1" target="ICCVcv-7TyuauT3s8LsY-21">
          <mxGeometry width="50" height="50" relative="1" as="geometry">
            <mxPoint x="1000" y="280" as="sourcePoint" />
            <mxPoint x="910" y="280" as="targetPoint" />
          </mxGeometry>
        </mxCell>
        <mxCell id="ICCVcv-7TyuauT3s8LsY-32" value="" style="endArrow=none;html=1;rounded=0;fontSize=12;startSize=8;endSize=8;curved=1;" edge="1" parent="1">
          <mxGeometry width="50" height="50" relative="1" as="geometry">
            <mxPoint x="1000" y="360.5" as="sourcePoint" />
            <mxPoint x="1000" y="200" as="targetPoint" />
          </mxGeometry>
        </mxCell>
        <mxCell id="ICCVcv-7TyuauT3s8LsY-33" value="" style="endArrow=classic;html=1;rounded=0;fontSize=12;startSize=8;endSize=8;curved=1;entryX=1;entryY=0.5;entryDx=0;entryDy=0;entryPerimeter=0;" edge="1" parent="1" target="ICCVcv-7TyuauT3s8LsY-19">
          <mxGeometry width="50" height="50" relative="1" as="geometry">
            <mxPoint x="1000" y="200" as="sourcePoint" />
            <mxPoint x="910" y="200.5000000000001" as="targetPoint" />
          </mxGeometry>
        </mxCell>
        <mxCell id="ICCVcv-7TyuauT3s8LsY-34" value="&lt;b&gt;User Interface&lt;/b&gt;" style="text;html=1;align=center;verticalAlign=middle;resizable=0;points=[];autosize=1;strokeColor=none;fillColor=none;fontSize=16;" vertex="1" parent="1">
          <mxGeometry x="235" y="10" width="130" height="30" as="geometry" />
        </mxCell>
        <mxCell id="ICCVcv-7TyuauT3s8LsY-35" value="&lt;b&gt;Application &amp;amp; Compute&lt;/b&gt;" style="text;html=1;align=center;verticalAlign=middle;resizable=0;points=[];autosize=1;strokeColor=none;fillColor=none;fontSize=16;" vertex="1" parent="1">
          <mxGeometry x="560" y="10" width="200" height="30" as="geometry" />
        </mxCell>
        <mxCell id="ICCVcv-7TyuauT3s8LsY-37" value="&lt;b&gt;Data Store&lt;/b&gt;" style="text;html=1;align=center;verticalAlign=middle;resizable=0;points=[];autosize=1;strokeColor=none;fillColor=none;fontSize=16;" vertex="1" parent="1">
          <mxGeometry x="1000" y="10" width="100" height="30" as="geometry" />
        </mxCell>
        <mxCell id="ICCVcv-7TyuauT3s8LsY-40" value="" style="shape=image;verticalLabelPosition=bottom;labelBackgroundColor=default;verticalAlign=top;aspect=fixed;imageAspect=0;image=https://static-00.iconduck.com/assets.00/namecheap-icon-2048x2048-ft2h6a21.png;" vertex="1" parent="1">
          <mxGeometry x="200" y="80" width="80" height="80" as="geometry" />
        </mxCell>
        <mxCell id="ICCVcv-7TyuauT3s8LsY-41" value="" style="sketch=0;points=[[0,0,0],[0.25,0,0],[0.5,0,0],[0.75,0,0],[1,0,0],[0,1,0],[0.25,1,0],[0.5,1,0],[0.75,1,0],[1,1,0],[0,0.25,0],[0,0.5,0],[0,0.75,0],[1,0.25,0],[1,0.5,0],[1,0.75,0]];outlineConnect=0;fontColor=#232F3E;fillColor=#ED7100;strokeColor=#ffffff;dashed=0;verticalLabelPosition=bottom;verticalAlign=top;align=center;html=1;fontSize=12;fontStyle=0;aspect=fixed;shape=mxgraph.aws4.resourceIcon;resIcon=mxgraph.aws4.lambda;" vertex="1" parent="1">
          <mxGeometry x="840" y="319.5" width="80" height="80" as="geometry" />
        </mxCell>
        <mxCell id="ICCVcv-7TyuauT3s8LsY-42" value="Lambda" style="text;html=1;align=center;verticalAlign=middle;resizable=0;points=[];autosize=1;strokeColor=none;fillColor=none;fontSize=16;fontStyle=1" vertex="1" parent="1">
          <mxGeometry x="840" y="399.5" width="80" height="30" as="geometry" />
        </mxCell>
        <mxCell id="ICCVcv-7TyuauT3s8LsY-43" value="" style="endArrow=classic;html=1;rounded=0;fontSize=12;startSize=8;endSize=8;curved=1;" edge="1" parent="1">
          <mxGeometry width="50" height="50" relative="1" as="geometry">
            <mxPoint x="1000" y="360" as="sourcePoint" />
            <mxPoint x="920" y="360" as="targetPoint" />
          </mxGeometry>
        </mxCell>
        <mxCell id="ICCVcv-7TyuauT3s8LsY-45" value="" style="endArrow=classic;html=1;rounded=0;fontSize=12;startSize=8;endSize=8;curved=1;" edge="1" parent="1">
          <mxGeometry width="50" height="50" relative="1" as="geometry">
            <mxPoint x="640" y="280" as="sourcePoint" />
            <mxPoint x="600" y="280" as="targetPoint" />
          </mxGeometry>
        </mxCell>
        <mxCell id="ICCVcv-7TyuauT3s8LsY-47" value="" style="endArrow=none;html=1;rounded=0;fontSize=12;startSize=8;endSize=8;curved=1;" edge="1" parent="1">
          <mxGeometry width="50" height="50" relative="1" as="geometry">
            <mxPoint x="640" y="359.5" as="sourcePoint" />
            <mxPoint x="640" y="199.5" as="targetPoint" />
          </mxGeometry>
        </mxCell>
        <mxCell id="ICCVcv-7TyuauT3s8LsY-48" value="" style="endArrow=classic;html=1;rounded=0;fontSize=12;startSize=8;endSize=8;curved=1;" edge="1" parent="1" target="ICCVcv-7TyuauT3s8LsY-19">
          <mxGeometry width="50" height="50" relative="1" as="geometry">
            <mxPoint x="640" y="200.5" as="sourcePoint" />
            <mxPoint x="690" y="150.5" as="targetPoint" />
          </mxGeometry>
        </mxCell>
        <mxCell id="ICCVcv-7TyuauT3s8LsY-49" value="" style="endArrow=classic;html=1;rounded=0;fontSize=12;startSize=8;endSize=8;curved=1;entryX=0;entryY=0.5;entryDx=0;entryDy=0;entryPerimeter=0;" edge="1" parent="1" target="ICCVcv-7TyuauT3s8LsY-41">
          <mxGeometry width="50" height="50" relative="1" as="geometry">
            <mxPoint x="640" y="359.14" as="sourcePoint" />
            <mxPoint x="720" y="359.64" as="targetPoint" />
          </mxGeometry>
        </mxCell>
        <mxCell id="ICCVcv-7TyuauT3s8LsY-51" value="&lt;font style=&quot;font-size: 12px;&quot;&gt;&lt;span style=&quot;&quot; data-slate-node=&quot;text&quot;&gt;GET &lt;/span&gt;&lt;code style=&quot;&quot; data-slate-fragment=&quot;JTVCJTdCJTIydHlwZSUyMiUzQSUyMnBhcmFncmFwaCUyMiUyQyUyMmNoaWxkcmVuJTIyJTNBJTVCJTdCJTIydGV4dCUyMiUzQSUyMkdFVCUyMCUyMiU3RCUyQyU3QiUyMnR5cGUlMjIlM0ElMjJjb2RlJTIyJTJDJTIyY2hpbGRyZW4lMjIlM0ElNUIlN0IlMjJ0ZXh0JTIyJTNBJTIyJTJGcG9rZW1vbnMlMjIlN0QlNUQlN0QlMkMlN0IlMjJ0ZXh0JTIyJTNBJTIyJTIwJTIyJTdEJTVEJTdEJTVE&quot; data-slate-inline=&quot;true&quot; data-slate-node=&quot;element&quot; spellcheck=&quot;false&quot; class=&quot;Code_inlineCode__lYefS&quot;&gt;/pokemons&lt;/code&gt;&lt;/font&gt;&lt;span data-slate-node=&quot;text&quot;&gt;&lt;span data-slate-string=&quot;true&quot;&gt;&lt;/span&gt;&lt;/span&gt;" style="text;html=1;align=center;verticalAlign=middle;resizable=0;points=[];autosize=1;strokeColor=none;fillColor=none;fontSize=16;fontStyle=1" vertex="1" parent="1">
          <mxGeometry x="680" y="170" width="120" height="30" as="geometry" />
        </mxCell>
        <mxCell id="ICCVcv-7TyuauT3s8LsY-52" value="&lt;font style=&quot;font-size: 13px;&quot;&gt;&lt;span style=&quot;&quot; data-slate-node=&quot;text&quot;&gt;POST &lt;/span&gt;&lt;code style=&quot;&quot; data-slate-fragment=&quot;JTVCJTdCJTIydHlwZSUyMiUzQSUyMnBhcmFncmFwaCUyMiUyQyUyMmNoaWxkcmVuJTIyJTNBJTVCJTdCJTIydGV4dCUyMiUzQSUyMlBPU1QlMjAlMjIlN0QlMkMlN0IlMjJ0eXBlJTIyJTNBJTIyY29kZSUyMiUyQyUyMmNoaWxkcmVuJTIyJTNBJTVCJTdCJTIydGV4dCUyMiUzQSUyMiUyRnBva2Vtb24lMkYlN0Jwb2tlbW9uX25hbWUlN0QlMjIlN0QlNUQlN0QlMkMlN0IlMjJ0ZXh0JTIyJTNBJTIyJTIwJTIyJTdEJTVEJTdEJTVE&quot; data-slate-inline=&quot;true&quot; data-slate-node=&quot;element&quot; spellcheck=&quot;false&quot; class=&quot;Code_inlineCode__lYefS&quot;&gt;/pokemon/{pokemon_name}&lt;/code&gt;&lt;/font&gt;&lt;span data-slate-node=&quot;text&quot;&gt;&lt;span data-slate-string=&quot;true&quot;&gt;&lt;/span&gt;&lt;/span&gt;" style="text;html=1;align=center;verticalAlign=middle;resizable=0;points=[];autosize=1;strokeColor=none;fillColor=none;fontSize=16;fontStyle=1" vertex="1" parent="1">
          <mxGeometry x="595" y="360" width="240" height="30" as="geometry" />
        </mxCell>
        <mxCell id="ICCVcv-7TyuauT3s8LsY-56" value="" style="shape=image;verticalLabelPosition=bottom;labelBackgroundColor=default;verticalAlign=top;aspect=fixed;imageAspect=0;image=data:image/png,iVBORw0KGgoAAAANSUhEUgAAAQEAAAEBCAYAAAB47BD9AAAgAElEQVR4nO2df1xUdfb/X3cYCxBGxqKEGQoW3ZUB0zX5ZZlWiub6KVcw6bfgj7JNxSB/rJWrrbtmkqifzfIHWLYrCrjq1zUFK83iZ1kmDJYSbMyALcbggEA2zP3+cecOc2fu/GRQ2895Ph7zUO69c+fOnXvPPe9zXue8AYIgCIIgCIIgCIIgCIIgCIIgCIIgCIIgCIIgCIIgCIIgCIIgCIIgCIIgCIIgCIIgCIIgCIIgCIIgCIIgCIIgCIIgCIIgCIIgCIIgCIIgCIIgCIIgCIIgCIIgCIIgCIIgCIIgCIIgCIIgCIIgCIIgCIIgCIIgCIIgCIIgCIIgCIIgCIIgCIIgCIIgCIIgCIIgCIIgCIIgCIIgCIIgCIIgCIIgCIIgCIIgCIIgCIIgCIIgCIIgCIIgCIIgCIIgCIIgCIIgCIIgCIIgCIIgCIIgCIIgCIIgCIIgCIIgCIIgCIIgCIIgCIIg7MKwLHu9j4H4L0Wv1zPv5uZOKCooXLtwScbTySkpF673MRG2kBEg+oVatdrviVmp37a3tyv5ZVFRUQWHPjjy6PU8LsIWyfU+AOK/D71ezyyYN//D9q4epc/o5yEd+zJ87kpHbW3tzC05Ofdf7+MjhJARILzOgnnzc7RabaJk9AKwQZEw+srB3hoNSfAI5O3MfU+j0Uiv9zESvZARILzKssyseZUVFYukUalAQKhgnWTYI2jv6lGuXb1m6XU6PEIEMgKE1ygqLBy6v6hom0/YeBhDYm3WG33l8IlIwvGSkrUlxcUh1+q4TPGJTU/MSt10LT/3lwIFBgmvUFFeHvRk6mM6SfAIYMRsxxtXvomBjF5z4rNP75DJZP16Aer1embCPfd+397VwwUoDZ34+NNTA5RKpaE/P/eXBHkCRJ+pVav9Fsybf1YSoAATler8DapUtLe3K7fk5Py+v4/t3dzcCe3t7UrJ6AWQjF4AANiyMSetvz/3lwR5AkSf0Ov1zMMPTf1M+4MuURr3Ioy+cpfex5w/hJ7Gk3g/f488PiGhrT+OTaPRSO+/d9zPPiGxYE3GianNh3/HuWvihfxSoCgt4TF6vZ55clbqXu0PukTJ6AUCA8AYuoDGU2B1dWDkkWAjkoRvjkiCpOUslmVmHTn0wZF7+uOG5J/4TMRk8Dtnw+5De2WVsqS4OPK/SbxUq1b7qdVqRZNGEwYAoUplo0ql0kapVF3O3kueAOExC+bN/+PxkpK1Pnelg701WrBO1rAbO54+gJEqwNAJJK6ZDn34U4JtmLY69Jx+C7PT05JXvvrqfm8em5gXYKbyTYQMQtmJzz4d683PvB4UFRYO3bIx5z2tVpsotj4wMFAzKSlpzcIlGXn24iBkBAiPWJaZNW9/UdE2aVSqTSYg6OJh7J2dh/Dw3mUNDcCsHY+hTZki2La/hgXLMrPm7T/4wTaxIYqkuQqG2vx+HYr0N6Y4zIdarTZRIh8KyZAxgHxo73ftaIKkXQu2rQ49zVUAYNfYkhEg3KaosHDo8qyXzvuEjQc77GHBOqa5ChvuX4dpE2zfd6oKmHd4OVjr9KHpyeytYYHZC4iYbDsMAcAYutFTuhYzHnlo/uvZG7b39fOuNWZJdleP0ueu2WCDIh1uzxi6gfpi9DSeRFRUVMH7e/NnWZ5nyg4QbmE2ACGxNgYAHVpkjBA3AAAwLhbYcP86SHR1whWqVGi12sRlmVkrvHGMWzbmpEHqD4TdJ7qelfrCJyQW+4uKtun1esYbn3mt0Ov1zBOzUr+9wsqUPmNXOjUAAPd92WEPQxqVitra2plPzkrda/m9yRMgXIZ/Al1hZUpm9PNgpb7mdYyhC8kDFmLtszqn+1n5jhyF7A7BMqa+GD31x/DWtndCJyUlNXt6jM68AB5Jtw6G0j9jUcbiBxZmZHzsyWfp9XqmVq0epNfr/c6p1cP55eoadaJer7/d2ftV0aqTMplMF5eQ8KWrw5IF8+b/8fjHn62VjF4gUGRKdHVQXv0EyoCL3DHohqEtKBEIUAh30NEEY2U24uLjN/99b/5igIwA4SK86ObKzwOUTFymjQGIurQBBUu/gtTf+b4WvxOLo+xy2xUmEdGhD45EeCrm4WMVPvetFRyjKF9uRYh/l8sBQj4CX1lWfn9FeXmavWCcxHcw4DfY6f6MOmFyIi4+fvPEyUm7JiUlnRX7/rwgy9rAyRp2483kAxhnNco6fALI+XAiNLfPBiv16z0+U0xk3YY3hiWnpFwgI/ALolat9rNO+VSUlwdVlpf/NlSpbOyvlBefCqw9/++Z1k8gALjjhzx88NJhlwzAGTUwa69IXAC9T2dPvQG7GYEOLVSXt6LJ/yG0ye8xL2Yu1aDn61y7n8efW3WNOrGivHyBuSxa6g+JPBJMQCggj+RuMKtz4iqMoRvo0AK6OrAt1TB2aAFwBmHGzJQtlr8pH+z0GbvSbODEgrCWGDqBF3f+Bsd6XgIsA6QWBpB0Ajcwer2eKSkujjx+rPjR4yUlawFAoVCUvZ69YWp8QkJbrVrt92TqYzqJ72AYu1vx7s5cm6CPN1iWmbWitrZ2ps/o58FaXexBFw9j+2znBuCMGsg+OAyV3cmiBgAA2I4mAMA5tXq4J0ZATBcAAGE/7sM//1qLtwtqkfPDaPNTkb01GhLfwdi1M3e5TCZbpVarIzr0+qDysvLplRUVi/j3SwIUYAKHQ6qMFETgvXGSWakvEBTJvSKSIO3WgW2pxudnPllUWfHSoi0bc8y/d0lx8as+wdFmA8AYupAWbd8AAIDUH9i88BvMXp+Dculy83dnwu6D9uvcxIry8iDyBG4wxG58ie9gMMEjgOBosN8exPTJCfNfz96w/YlZqZsqvzi7yGfsSrDdrTCe3grF7fKyrdu3PeiKSMQVHKUCmeYqbJ+2zsYNtaS1BXjzQCgKNU/bvfkBzkU11hcj5BY/j7IEer2eufuukUZrL0Ciq8O2iUsxLpZ7KsasXQzWImDIxyIExyIfCiZAAci5m9PpsKKf4M+JsbsVcfHxmysrKhZZajKYxk9QmrEJg4Od76u1BRi74VnBMML4USYWZSxeTZ7ADYBGo5GWFBeP+GdB4Yra2tqZAHfj+4SNBxsyBggINT91mOAYVJSXp1WUlxdUVlQs8omYzF2kAaGQjF4A7emtiU/MSv3273vzf91XQ2CuCgyJta0K7NBiw/32DYDNzW+ndo+/0A3drYiKiip4PXvDM554Mu/m5k4AbL2AhJv2mY9R6g+khBegoKfXCLARSZAEx4AxdAncelcPgDF0gWlvAtvdCnRzQVHVoHMYdPMVu+8p+8/d3H985WB8B8MoF4/wG0NiwQSPgE99MSorTnKeiUU2IOymOpcMAAAMDgYSb/sCpbANlt5wRkCj0Ui1Gk2AvfVRKtXl/wbNt+iNH6CAT8RksMExghtfgKEbWq02cfPGnAM2aTCTIWg/vVXZV0MgSAVaK+46tEgJXCWaCmxtAbL3y1H03aNA2DiwIX62G4FTC7L1xTDoLkChUJQtXPKGxz0I9Xo9k7cz9z2fkFiBMEiiq0PGI58Ltp15TxOKiqphDI7pXWjvXFvTrQOju4BBPf+GSn4eUbd9DeUtVxEdDgzyh0O3XAh3TK0tQGMLUFYDlNfHoPyH34INGy8Yu7NSX2DYw5AGhMB4qUbglfCZAFeJuu1rlIrYpmtqBPiUSmV5+W81jZqhGo0mRqvRxNqLsjoiMDBQE6VS7VcqldXDo1WfJyQknPOWC9xf1KrVfuXl5cNtbvxh08EEx3AdeJzsg+3QIjAw8HJlRcV4aVQqjNauqskQXPk6T/nErNRvt27fNsJdVVytWu23POul85IABTBsus36mAGf2qQCDZ3AjiNATtWz3M0f4fjm7+Fv/pWe3/w8fKWgdIStFzBSJdx2pApQ7DmFRsTAKR1aMLo6KCU1iFd+gcRROsSEu3OzO2ZwMPcaqQKeQzUMndU4WrkbOcfuhVb2sMBDMIbEAg6GU65Q+5+7gIHc/xlDt3l5v8cESoqLQyrLyxMryspT+QsfABdhDQwFpH5clJU/IF85WEfplfYmwNAFdLeC7dbB2N7EXYHggmaTJidteCY9/dCNUi9eq1b77S8sfKjkWHEWb+wkAQowIbHmG98tvtwKo+4Cl4Yau9LuZoyhG+zpt2Ds0JpTQa5+xIR77i1tvoxEay0Az1jJbuTNPwCg9+bPq07D5VsfFKSiBMdjuvmN5ie/d7oP86nLzoDhSutYQP4jS22MAAD84wiw+tsdwmi5BXe0/RPxt3yEhGFNGBsNl11ub3L4BPDacVuZtSXRrZux/48nXdqfoROIeeUpsCajztdtvJ+/536vewJ8YKuyrPz+kuLiV/m0ikQ+FD4Rk7lgS4BCcHFZmiGnJslKISUBl1qC7gKaL9Uk7srNK9qVm4cZycnzHRVN9CclxcUhx48VT7PMJUuCR0AaNc4cXWbRt+iyJCIJRgfrWakvmNHPQ3L6LSzPeum8Xq8fnZae/qUr+9ZqtYnmWIMIZXW34+0C4PIVoPDcdLQrU8AOEb/50dEEnD/o1Se/Je54ATyPTgA2VX6GtiHTRNdvePh9u++9VkybAIyN3oM5f6tF7a1ZosZV/VMiWltOumSkdvwL3FCDp53LxESpVCe95gnwF/7+oqJtAACpP3yCo4HgETYVZv2JpFsHtrkKPY2nAEMnZqenJS/MyPhnf8cRigoLh1pG9PlcsuTWaLDBI7wXYf5yK9DV6tALsIapzUdPcxVmJCe7pJV35gkA4IJgDrwYxtANnD9gLl4JDAy8/Hr2hqi+qAGt8cQL4BFTLfIsuSUZz80UXXXNMXQCU/46EY2KBaLrVRdfcyrSamgAZu1KExq9yjfxmzBZwaEPjjzaJyOg0Wik7+bmPlxUULipvb1dyd/4bNh9HosnvIVl0YRlbr0/PmvtmjUzduXmFZlTefJIzwyfaQyaOPgzlH4TBKhSbW+0L7dCMmSMTbRe/vN3iLq6F6Xs07ZSUQgNwcpVr+5wZBTNrcLkQ4Hfil98zpA0V4Ht1vUO20zqOL60dcbMlIK+/h5bcnLu35yz6SPp2JcFw6qxV/6KvMzPHbyTuzGm5ImLllx5/7XEkcCKMXRBpfsbViWXiRq9M2pg7nvCMm5eJNUnxWBFeXnQrp25z/NPPZ+Q2Gv+xHeZjiZAnQ9jh7ZfvAJ7+WlXYAxdYHR1CLjyJSZHVmLyqCYkRnOprDNqYNa7z9ro35nafNFo/Zuxi/C78dxYMutjO4o8k1xUrJLMGkeVgp7CXKoBWs6ip6UGMHQiLj5+86IlGas8MQYajUb68ENT6z3xAnjSssegdKBtzRJTX4zqVe+4pIC8Vry8PRQFPVvsrpe0VENprIIy4CKG3/I5GJ+bUN6YiNqeB4SZEAAoXQtjdyu++PqMRCaTsW7FBGrVar8/r16zrrKiYhGk/twYP+w+z1zdbh0kXa1g2+owaIAeKvl5AED8Ha5ZYE1bKLT6UJS13gM2eIR91zQgFIh7ET71xdiVm1dUcqzYq2KaWrV6EADXI7emp73KtxJJw8swZZp4tNnuRWwVrWcMXUgOXIXfmYZ7XNpunaghMIbEQgqg9vyhmU/OSsVb27c9LhYzqVWr/fYXFC507Qu5DntrNHBrNHyGdYNpOYvPzxQvejL1sUWeGIMtG3PS3I0FWJN89+co/Vxr4zmxwdEoq4FDEdS1ZvKoJhSctD1WHmNwDL5HDL4HUMoH/u3F1+9KAyqzwXdXcskIaDQa6ZaNOWn7i4q2eXzz8xf/wK+gCj4P1a+bEB3u4GJ3ShOAJhg6P8e+E0Be1TR8PzDJ7kliI5LgI4+E9utdiU/MSv329ewNcd4cnzpC0lJtftonjGnClDh4/JSxPufKH3Zh9Qphus6ZIZAEKlB7euvMhx+ammipJdDr9cyWnJzf78rNK7L8nb0NK/U1CYhiIW2uQuUXhxY9mfrYIlc7DGk0GqlZxOREF+CIaROA1Uc/gj5A2PEIAQqUnbsJ42Kvuryv/mZcLMAU1oC1ur4l3Tr3M0ymobqpFZljI2DvonD15vfmxW8PqT/w+FTg8amHcfjEYeQcuxeNtzwqagzYoEj4jF2JK6ffUj4//9kmd1NnYkSpVJcBcNFWq8wFc/4A0kftxaNTrnqUWw7z1+J7B+uZxk+Q/cRx0XPqyBBYagkenvq7znUb3hgmk8murF29pkir1Sb6hI0HIpKuiVzWGBILn+ARgMlTqygrdzpUsVcj4I4XwDNnzAHkXEyxib4Xf3sfluK4ezu7xjBtdTB8vQuWBUWuvg8A4hISvgQc6ARKiotDlmVmVba3tyt9QmKBYdNd+iB+bDLpV8V4dJxnF39fOXwCWH3UlLoSSa3wOfSBjF7jDXntsPAIVqx+PcX4ONY+/5PH+7U3ZgUAdOuwRDkXz9lPIwNwHCOw1BIAJv3Crx9x3qiiQwumpQaqQeegCj4PZVCT6Gb8kE2tG4bLPncCwTF2dQSAazELe5WC7sQCLGltAcbmCOsJAK4uovSFdddFI2CP4ctsY0SewAcG+fZqNp6ARqORLsvMyq6sqFgkCVBAEjffpnLMhm4dgi59iEl3nsTM5KYbIsc6Je4A3iw6gryGlTaBET6HfqUyW7lg3vwP+6vbbViw5wbAGaq2/8VzGc63mzYBGDRwHbKOLkBb8ETBOlbqy8VLGk+BkfrCGBJrV7vAdw9OGfr/MHl8bwDTMU2m1+doaABK1UBu2URo/ZNE9fLmmEVt/swnZ6VCbAZjvmuQN7wAgBMCTbrtEIohNAKsfChKa2C3S5I7tLYApTWApgWQDQSmxLovQGptAeDi054xdAEt1QiTVCM+9DQ0HXeizC+rd4N2zujzMRiBEdiSk3N/3s7c99q7epQ+w6aDDRvn8MMkujooOouR8eDxfnH1+4LUH1j61FUkVq1C1kFb5RUr9QXuSoO2MjtxWWbWiq3bt/3lOh2q2wRdPIydf/jK5e3HxQJ7g7di5tvNNh1/AYANG+fw5h906UOkxeRhbrrnv3F4OPd6fOpxHD5xXLTZBSA0BMsys+ZZ6hrMsYCIyX2KBVgzd1I9jh+sExomXznKz4di2gRxL8cVGhqAF3cnQm0YD1Y+lAte/1uLNRVNCJNUY/szh132lPedgOPgs8k7S7ztC0yK+hxjLQLObxc0oexHi227WxEYGKjh/5QCVp1Lg0dAOuIRh8EGia4OCTftQ8Yjn1/3p74zuBtgD2a+3WV7AwSEwmfYdBwvObC2pLg4z9uBwuLz4zGl4SQudwI1Ddyyx6e6/n6xgg+Jrg6vTMhz+0kSHg4UPHcAM9+GqCEQQ9JSjRm35WD1Up1XDTznqR3Hqt1foLB9tU38hjcE+4vytwEAbwjMMwdZue6eegE8XD1BMRrlQk1ERdNocJ6MZ8x7dxq+v91qsqMABdgABb7vHortR0pcGi62tgB5NWlmVaa5crGtDqqAr5EQ/gUS777qoncGsN06RKlU5gCslG9cyHUu5WqV7cpRu3UI+zEfGQ8e94qbdK1wdAOwYeMguVSNZZlZlfFenpWmxv8pTN54GxhTNPyOK8V4fOphl98v870KWBgBxtCFif5/8/jc8+chc18XqmXz7W7HGLoQqCk0zxvQH0j9gbXP6pB4YpHdLIZPWx32FxVtmzg56XCUStXCZwQsY1N99QJ40hOPY/W3QnFWozEGrS2HMTjY5I7DPTe+sVM8UwUA0e07sTrTteHii3kxuHzrg+b7Lz3xuFuZNfUPwwU+v7G9CUrlyGr+b0lRYeFifq42e2IfxtCFoIuHsUQ5F0dX/LIMAE94OLDj6QNgTDJWAcMeQXt7u5KvSfcIi6osM75yICqVK9oIUDi8KFwhsP59bJz37z7tIzwc2PvCMUhaqkXX8/0Cy17tPwNgybQJpg7EIsfDRqVCEqDAssys2rWr1xQCXEbAkr56ATyPToDttREcg+3/4oKrD216DGM3PMvXqrlE4m1f2CxjDF2I0W/Dvswyl57aK9+Ro0zCGewUv5dw/LXjeHyqe6n19p+sKvMNnVCGKc1ZMXPLccZXXFnAGLqg/D4HH/whD8+l3FjjfncZqQIyRqwzN38wExAKn5BY5O3Mfc+TFtRx8fGbWVOEvb9gmquwY85Rr5x/qT8A0axJFxKurHO5Yai3mDYBSLhdvLaJ+fUjaG9vH3S8pOQRUV3AQ655AWfUjtdL/YGUof9PsIyV+iH30mZkfr4ZbcoUMEGRKKtx6eMAAIE3dwj+5g3s3heOuXR+D58A9reuAAIUCPsxH6ufct7JWYzLPw3sPQZTenC4SnWOXyaZlJT0vwCAxk9Ed8Do6hAffvaGSpX0hblTAdlFW5ecDbsP7e3tyqLCwlH99uFSX/eeJNHchY5uHdKHvum1J/PbhYDRqlybv0B3LKx22QAYOrmb64y61132FH3XTaLLLdOVnnoBrS3Akh3O+wfMndRk6w0EKMwxC6M8EqVuGAHV7eb7zO2OzKequNSuUR7JqUJVrjVyFUN9eXjvHyaPVSaTmdPiEqVSaZiRnDy/p/EUV5JrBSuP7NdU17VG6g/MufsAl0axJCAUkgAF/llQ6JUJMMRgAhTmAKE7RLfvxNKnvKNeO3wC2HR+vY3MOlBT6PIFevgEMOO1RMSsXYzUg+uRenA9xv7vckx8ZSLW774JDQ3uHdM/PgCqf77X4TZ98QJ2HL0JTX4POj2u8HBAJXVcn1/R6Hr/G2UwOK+zQ4uUm5e6fH4bGoCsowt64yQt1ZjiLQmzVXoQMA0HFi7JyAv089GwVg0XAc4lKlJPc+sJdqPz6AQAImNQJjgGtbW1Mz2alebnXqPCtZH2PKrMExYMxPu8hzefKuvzvoBe4ZB1jl6iq8OOpw84vUANncDs9TF4qWw9aoKzwIbdB6M8EkZ5JNiQWDQqFmDnlT14aPdqTFxxL06JhF/Ejum1z20zBDxMbT73bx9iAQU1U8EGj0CpkyEBAKSPK7MdLlqg7rjL5Xsh7DaAaTmLlMBV+PO8JpcNwMy3pws1Hd06j0V3DQ0QNO0RQwIASqXSkDYn/eme5irzmMGSxltSseOIZwdxIzI4GFAaRZ4ippvDXBTkIhMnJ+0ydmi5Wv8vt6Lnk5UwVmZDIhKE1NvvPyl6nLuWVntFdelIORiL7U5vKEMnMHP9KJT7WxmRjiYwbXUCL9IYHIPGO5fgzUNRLh2TTZWbCb78uS9ewOETgH7INC7v/91wp9tPiQOCLn1odz1fXOQKI1XA9umbXJqVCeg1AGIpXE8fwpc7IYj/sG11iIuP32y5jTkw+Ex6+gmFQlHGfnvQZkes1A85Xy7u87jPW/Dj0L54Jwl3iDwWTE+jyvLy37qzr7T09C9np6clj/n1LZvH/PqWzYsyFj8AcPlYS4zySI+GA33FoXS4uQqZj5x3uo8l2+8UdLhh2uq4ktTKbPScfgvG02/Z7HfjnFqPjgnoNQBA37yAoi/GmIc+FRed/6xSf2Bi2FH7G5iKi1zF1UpERwaADYlF9IqZ+M3z0xC7fLpb96H+CmAc4FhpaM4eymQyduWqV5Ofn/9sk0/jKRu1IBt2HzJ2HMF7K5xfMN7mVBVQdo6rj1ZfHs65N1I/s1gifVyZ22lLZVAT8KNwWV8KZkzVb2YBRsmx4oJvLjVd9/40zm421c3izSgsOaMGSlofM3cO5jX+CoXi31ot7oTUnytPNcHPTGzPg3HHAPSlUrChASjTTzQ319TfPBwNDc4bhc6brENRXpXd4ytvTATgWm8/V4/TngEAYE41A0BHSzX0Vw64HKivaYDdoRaPQDY8KSmpOS4+fnPlF8WLrEUZAFCFeTijdr9Iw1MaGoC579wLrf8kzmUcDGCwRW8+eSRqkISXyupQfHYn3pzzTb+ktiyno9JqNKMEDVMtiIqKKohSqUriEhO4CS6tg4/XGD7CbPdmM3QhZZTzi7ngs1DzPiTdOhjOH4JCoeAEC1J/WE5NJtHV4Q07U5MDrhsAzsBo77Qu7HHHC9h+TC74HFYeiVK1cyPABwhrIH6M6iujYOg86ZVrzXw+wl1zGdiOpr4ND3/ugkwm+8Fykc3U5K9nb8iEoRM4f8Dm/UZ5JDJ3O47iepNSNXoNgAOM8kgUM6/gxZ2/cXnfSieWVKPRSLfk5Nw/esRdjU+mPqbbnLPpo4/K1Gu/ufjzTJ+IyRB7fXPx55n7D36wbXnWS+ftGQpN27Vpu9bQAGQdf9HhrD+Mrg5jXbihjtXFmf/Pmno3KpTKBq1We6d02MO9reQ6tEhTvmzXAJxROzEAjafQ01yFP776yhKAa05rPfOuq7EAADjeOEXwNyv1cykuADgOELJy9/QC9lj5jhwvla13+BtZM2iA3q3PUP8g/L7GDi1U0SpBpNmmilCpVBoWZSx+YHPOpo98QmJtykobb5+Nfxz51C0NvKdMiQXWVLj2NGWlfjjW8QccPrHIpaGBRmRcxQdFS44Vb9ycs2kkwHUJ9omIFUxH5UhXLAG4YJmuDvAbbLOtVh+KvujRXaGhAZi14zG0Ke9xuJ0rTxVDJ9DO9s6yzYuizPMe8BewaUISe6nMhgZg/j8eA6u0f8Gz8khA6o+/rHltIwD4jH7e40pBQyeweOwe6K/sgfqH4Wj/KQBq3TCor9qd10bAlDjgteMfirf8DlCgtA+dh1pbgDl/GwV10AuAXKRGh79+DF3miWh4+A5crtL+U4DT2UVEVz+Tnn6iqKCwrPnbg4mIe1G40leOTaWP4dEJe/pdVTY4mBuzWrplfC00pP7wCRsnrK8OUGDTyWmYNsF1fb4lTFcrAKC2tnakT0gsGFO1mtvFBAGhzsuv+4ne8aWTRgMAlDfZZoKsqWkAmKDI3nNgSoVaTk3GGLqQYNxmNwru8jGZmp1AzaUFLR9A7tYI8M1mOHjRjnvvT/5NEXIv/060B8K5H8e4tT+eU1UQrWoFuGub/Ym8wI4AACAASURBVPYAjN2tvQsbT0Fy32vmP61ViM64/NNAc0xE0q2DEUCoUtlouY3NcADoDRIaO7RgGk/Z7njI77DdQQDVm8SHnrQV9gCIu3vEyZ76Y+Y8Mo9GEuuSWEXMLWfb6iCRD4V07Mtgo1Ldb9t0nXEaYLIiLMh5S7/ocO68mPEbDMuGHmal4QvitQjuHhMCQsGMfh7M6OcFi71VI+AOc6dcFdWTABbzCbrB+t03Yf7R1TYGgDF0c7GQr3MRcotf2boNbwz7+NNTAxZlLH7AOgVmqUJ0BUu1IGsyLkql8pLlNnYdBUdBQlbqh00Vz2LWuHcEUcqGBi4YA8Dl3KgzZk0Adu2u49wiwNzCSxWt+mri5KQDf1nz2kbLYQsrj8TRKuC5cMf7VbcMs23EOGw6IPUVr6K0qNcODahD2GDb71fTFAHtlTugvjLKbvNT7uLxfjtrhzdb5ZuA32BgxGy39yv1F7Y5Y6JSBdeCSr8d++wo4QydwIv/GG97TB1aTPHfDpn/VRQ2z7ERL1kHpL1VKegug4OBhIGHUSYSIGSCInFG7Xohz8vbQ1FwZQ0QbHVNdDSB/ToPxu5WLMpY/MDCjIyP+VWaRs1QiUVNj9jD0Bs4HC28nr0h8/57xy1ia/NtLiA2Iglz/laBPz36FfRXgJ0fx6D8yjQgOAaMrg7RR1Z5JW4QHg4ojVX43jR3HCv1hSR4BCrKyicc+uDIqL+seW0jWmrMxsFR+yqe1hYuwmttBMRShExzFeJ8i/Bo4nkXGqfUA6hHa8tJHK0yNT8dNF04wWRwNA6f8E7HGh5DJ5C5b7KoAWBq89HToeW6O3u4/0m/Kkbu5VSwUj/BOZI17Mabz4lHyXlxUe2t84THY0of8t8//sRSh8FC4Pp4ATxz7q9GxfE6W0MVGIqyGteMQEMDUKh5GggRGgA+1RoYGKjZumuPzZyRGo0mBhY1Hkx7ExIfcP3YW1sgfBDpOI/O3BeTPw5HO+GDhMaWs6JKQvWQV5B6cD3mfrYDZbLVYENiwUr9YAyOQe4p72URJv2qWPA3ExSJ2trakRqNJlyhUPzb3Qq+o1XgntQOkOjqEK9bjtIX1uG9FecxbYLrFZSDg7nxaMkqrvxaUJQSoEDOhxPtv9lN+Jutxl/EAFyqMefb+6KsmjvlKgZZqeiCLh5GwXMHRAOLvQbAQlxk6EKYdiuOpgnTh3wpcZDuM7uf72ob+v5gXCygvGpbXMdK/Wwi7/YID4dNpoFpPAVDbT7i4uM3n/js0zvE2q1rNZpYpg9D0sYW8epg654ZTh8OCzMyPlYoFGWsOl90vVEeKer2amUPOy3fdJXJd18V1JszpqHBlo05f9JqtXcyFmIIxtAF2UCbXQgo/CLR7jwFjKELsobd2DZxKd5bcb7P1ZPPpQB7Z61DUEtv59rGW1KxfrfrqjN7iN1sAoIiIbE0dlb1DGVNjmW9PIODgVcm5AEmY8s0V2HD7/LsZhb+9PdQ8zHxvSgyhjyJoyuOi75n2gRg72NvQtawW3R/xecSr2vtSrLqsGi60BUFIk+Yv/BBxV6qRlRUVMHf9+YvttfIRqvVJsLiJmbb6vrmERm6BW3FeFzyEF/P3jDV2N0Kpr7Y+cYmjPJI7CiJcOMI7TNSBch+6g2IGH3lkAQosL+o6BkAYEPG9G7cUu0w931GDdRiivjKbp25oYa99E9DA/B2AVwqjrE8/m3JW3s9Al858hpWurUPMfadAGp/Hm93CMRKfYERs+Fz31r4jH7edmq4AIXLEtRpE4A5t2eBqS/GhvvX2T0/63ffhKKLz3KNLrVb8eqvnsRnS533ouC7HokZArX8D5i5fpRbhqC1hfud3i7gfnN3Kxstmfs7kYYj6FUguoLCT7gh4yuHXq9X2tu+Vq3mftRAC7Wfm5awrAaCYQzboRW0FeNxyQjEJyS0TZw0aaW9cmN7lLTO8lq9waQ7hco2xjSG9AkbL7i4E2XiTxue7IPDxMVHHVqk+L2Ef/5JPMjV0MC1AH9o92oUfj0RiW7OuDZSBbwav878NDUGx+DFoul9esI9PhU4Om8TUpi5CNIU2he3SH1F24jzHXVdZelTV3Hu9XccxjNkvlfxxrhVKH1hnbkLjqvDKHuGgJX64dzNj2PVrptd2s8ZNddGfOOPRdj4YxFSD67HlLzlGL7sWcxeH+O2QZD6A8m/2meznFcgukJChFWWwXcwtFptor2KVb1ez31ZixhMYqj9Woy+4HKsaOWqV9cH+vlojOdtC4zsEhyDHUf77vYC3DRMsBj7M8ExkEalCubJY5qrHCrKzqg56bMNJqGLvYzG4RPArN0LUDpwBVhDF3bMEZ/wwxmPTwWiu/aY/9YPmYYd/3J/P5aEh3OZmM/+uAfZo+YiUb8KTHOVa5FkXzkKK50323CH52ZyXoOnwyjeEMTotwmWG+WRaOpyHMfhyflgjGAeAb7UmY1IQplsNea9Kz4luSMyZ+hsvAFW6oey8655u9HhEFy/zipW+SI2S+PtrkbAOg1ubG+CKlploxN32Qjw5cZiQUKmrQ5MfbGNl8BK/VD0TbJXxnPjYoUumdFXLpyZ14XuO5m777WJ8jKGLiQNyHYodHntRJq5vjspWDwY5iqrksu4bkEA4CvHzi+mO36Di0j9uZtv19JqlL6wDhm3P4k7fsjr/Sw7lF+ZdsNUh/KEhwOTIo4Jjb6hCwGsc7XcGTVQftVmugIB3w+ajsMn3DumwcFAnG+RzfJzba65hGHBgKTL4hozxbHUarWoFdE0aoZaP2nc1Qhw6lQLDJ2QyWQ2F7pbWSNzubE6H8ylGm6W2S+3ouf0W+ipPwbj13k272m79UGuZ7oXmHTHp6LLGUMXEq/mOOy+83YhJ3m2Rql922Hzzj/tixHM6+7qD2HP5RypAqLY3se//tYH3L4gnTE4mHsil6w6jG0TlyLppyy73gEbEotV/7jTuwfQRwydwLGaUcLqt8ZTmDv1sv03mcg+OEx0YhMBvnJsOumBN/DIeRuj2ng10iUjGh7OybR5WKkvJL6Dca5GPUZse41GEyMJ7L2JXQl4O4J/QAfIZDZZCLeMgEwmY7du3/bgwAE/a3q+zuUUTv5dZes2vDFs3YY3hhk7tLapRF858qrcP+FiTB5Zb5tqcaJYA7inQ87Z5TYZAabxE+x49lO7rn1rC/ek9ITtx+R2syMpoyxUkAEKHDvjnQCqGONigS2L61H6wjokD1goGtw9rk/vc5DSW1hmPHiY5ipseOgdp5HxhgagsjtZsIy5VAPjR5k23/v7gUluG9+RKkDRKdwP60aPCBuZtt9g1KrVk8S2rVWrZ1imB5l2bgJfd7DM/vBqQZVKVW+9ndv6kSiVquvEZ5/e8X7+HvnHn54acOKzT8cmp6RcSE5JuRAYGKhhRWTGnrhfYkyJ49o1menQInnAQoe92wydwNz3ptuIURhDF5LveM+ha19awwXPLCmvdz6Gbm0Bir57FMe+EI+HRIdzFXw8lS0JTvfZVwYHc7GD0qx3oLr4msAr4IOU13tY0NAAJK6ZLkh5Bl08bKMtsMeOklCb35n9lquG7Wk8xbV94wlQcA1H3CTjwePCB5EbTUasZdomvYtotWl7e7tSkB7sbsUgd+NQljeFWEt8Ex6JyGQyGRufkNBmPbc9HzOwySD4yr0ikJH6A0khXB9EprkKS8IXYe2z9mfH4Z8q7WKVYI2nkDnDcaZDY624AlDR87RTg/ZiXgzYiCTU/ucu0fUjVULX8LLPnX1KYbnD4GCgYOlXiLq0QWAI9OFPYc7f3EvDeZO3C4Ep2xdDH/6U2QDIGnZj72z7egRLWltMqjwLJM1VZjkuDJ3CBwi4hiPunnex9mPlLjYftRE9mdJ/FeXlQZaLzX9bpgfd7DNo6IRw7kKRBqM8nipJRXkmPf0EAIg1LNX6u+9+iZHwq3OQNezG9mnrnM7I++LO39gV0iT/ap9HEWyjPBJZHy/H2wW26/hGnOX+ywEACpn9kmFVwNfm/zO+g7lecNcIqT9nCAZdFKYmam/Ncjsf31fOqLnOxRs1OwQRfVnDbruKRDGy98sBq9Svsb4YcfHxmxdmZHwcFRVVYLQaErAhseZaF1fhqwstDSjXZMT5e2UDhfp/vgGodXBQr9dzF6zFTWwtNnJGTQPX3doVvGoEZDIZOyM5eX5Pc5XQ9QJ38+Qc67uU+PGpcCjm4Vn5jhzFzCuiBkDSUo15k53rHZTBEKZ1TLAhsdio3YFJq6dh5TtyvF3AFYjcsz4N5f7Luc/s1iFhmH0jMMj/Z/P/jV5qUuEOUn9gwyN7BEpMVuoH9ZBXkLhmutfUnvZobQEWbroTqUWrUROcJfC43DUAhk5u+GX5W/NewIyZKVsA4Jk56X80drfaxKyON05x2+hZVxey8kgcrXT+vuhwbmzPY/SVA1J/NGk0AiNwTq0eDgjTg8qAi+4dpBViDUZ5vGoEAK59OQDRyUy0soe9EoBylKPnn8ZFP2+xq6RTGqtcusDGRgvH7gJ85fj+9jQUsjuw8cciFPRsQduQab2u7MXDmBIn/lZ3OaMGYjPux9sFfWuuas24WCAtfK2NodOHP4XUotVYv/smr3sFp6q432fs/y5H8c1vCoRbjKELd/yQ55YBAMB1wrbqiWmsL4ZCoShLTkm5AAD2YlZttz7o0g1sCV9daCZAgfLzzvtHRIf3NmXhkQSGQl2jHm+5zLp6EOAmp3WHmgauyMkVvG4ElEqlgVcXWmOURyL3E/eDMa5i2RbbUTVhfOhpl/Y3OBhICS9wu4RToqvDqinO+/i7Q8ftD2GjdgcS10z3qjFY+tRVpASusjEExuAY5F7OxT3r0zyaUITH0Mnd+C9vD0X8y49h7snN5mIzAR1aJHSuwwcvuT5dN7//nZ9PF/zezKUaGLtbsXBJhiBIIBqz8jBelRJXLThnli3Y7CH1h02AjglQoLKiYpHlMuvqQcA0Oa0b6K8IK2qNuguiQiGgH4wAAMyek/4WDJ2ifffLO/+nX1xNsciyKE7cdGv+9EQTAjWFrh9IhxYzBv/VrVJhl3PAvnLow58SGANvsPZZHZaELxJVxLUNmYadV/ZgSt5yTFo9DS9vDzXr8cVevF5/9voYTFo9DTFrF2Puyc2cp6RMEe18yxi6kBK4CruWuj4FGs++E6Z5BSyPu/ETgRfA8/uUlFPceuEDSnvTOLevyWkTANmlj8x/dwz8rUuG0nqSUiYgBADX05JfVqtWz7Acz0t0dW6nBy+LzG8hJhQCnHYf84z4hIQ2hUJR1lxfnAjrKaeDY7CjJAJbbNOVHvOPI8CazxaDDb/P6baSrlaE3eb6vqX+vdOatytTHBoYSUs10sLXujRlWFlTFDCM+7/bOWCzMZiGotUHsHj84T73J3guBUhUrUPmnolovCXVJivChsTie8Ti+5404Edg00HxYRIbGMqdIxm4lwuE/ZiP1S951oQmr2oacLtFPr2tDj26C1i48o2nrbflp9zbf/CDbT4RSebeCMbgGBR8FoqRKvd6P84ZcwA5F1PM5fP7Tt2EpeGOf3uFrAno6f2bNT3xtRpNgFKpbAO49KDPrcLeFu4Khc79OMbcVoyvHrWchNSSfvEEAGDhkoynxQIxgPcKi/jx/2r1Zli3puaxkTJ3tyLMzaxAeDgXjMwY8iSCNIWQtFRDoqszv5j6YiT9lIX8ZPuNNi1pbYHgich2aN0+JgDmuETmV1yQsq/Zl5Eq4OiK41iimMsV8TgoFuOnH7N+udLURUC3DovHezbZ5uETnOjHEra+GIGBgRprL4BnxsyUArF0YWHDTLevyUfHA7Dwnkq+S7K/sYnAAUJDw9f7azSaWwGL9KBl9V8fS4j54azlJKSW9JsRcCQe8lZh0bEqcOk4URezG/hyK4xWPQjRrfMoNSj1556WFX/egw+eWoX8R5aaX+defwdbFte7/EMdrRKKkMJuqutb3wIvGgOpPyc5Lnv1ALJHzcVkw0owjZ84NAh94Y7LBzz2YnJPJQp+e0m3DkbdBaTNSbfxAnjiExLaxNKFCIl1W97OxYx6h4qam+5zGPg+owb2X3hMsIzvY9mk0YQBvelBt42pA/gGugqlUrQCqd+MAGBfPOStwqLG/9g/Wezpt2DUiT4M+kx4OPfU5F/uUlwdI3C344bY76rjFl42BtMmAJtfOIfqlZuQPWouZvosNHtCbtHRBOb8IdtJWk1egCecUQO10t8LlrH1xxAYGKjh9Sr2EEsX8hPvusvMe7Tm82GUR2JfqbAOo7WFG67O+Mt4zNq7XLTJqCV8etCyPJ4JinQ7MKvpGGL+Pz8dnrW4j6dfYgI8v09JObU5ZxMXiLEo+QX41MyePo1lE6O5salNZeClGvR0aE2z2Fy4U2DpfOVobfG81LWvmOsRTONlSUs1pkzx8lPWV47vfdOQ+dV0bDrZ95gBbxCmTWjCn7EHDQ3Akl2joB7yivgbOpogadeCbasDq6szt9CWho0TNHHtixew8XCM4HeXdOtgaK5CWsbip+116uFJTkm5sHb1Gs2VxlNKWOTiuXoC987VSBWg2HMKjaYemMXsK5i4Yhcm/eZTaDuGo7h5MtfKbrAdUZLJI+HH62LpQaM8EpMLN4NpqcGgAXrz3ANRt30Nme9VyAbCHFMaqeKC5I1XLe4JB5JhoJ89AT4QIyYe8oaUeKTKqh02j0kimTwzZZf1KsZ3MBqvo0beWtmmNFZ5NIkF03gKxk9eAVNfbHtuebwcM+AJD+cUh4yIFgSVb8JYmQ1DbT78O85d/k3E7WcA2zkF0a1DWqxnXkBDg21hF69S5TMAzhD1Ur1RT+ArR+OdS5DX8T6OSddysSqRVnbmNuONJxEXH795UlJSM2BKD4p5twEKsBFJaFOmoHTgCpQOXIGdV/Zg449FWP3tDqQeXI/Ug+sxfNmzmJK3XBAjYzu0doVCQD8bAQCYPSf9fRg6BQEUHq1/Up/ThdYpF0v0en2Q9TI2MPS6zAwMcBdv0fdP9w5h+nAjsJeqAUMneuqPoad0rVvGwBs6A7GcN8BNczUjOfndjz89FXH67NdB8YkJJwDbmYVlFw/j0QmefbZ1oRBj6EZPcxVmJCfPt+fyWmMvXeitegJHY3qmvhg9pWvR01yFRRmLH/j73vzFluuNHVquTN9VfOW9gdmIJLemNQOugRGIUqm64uLjN7MiTw1v9CEU7URrchPVNepRgDBD4M58dN7mT/tiBBaaaTnr8Y3A837+Hnnc3SM2u2MMzDqDQu8qEHmUYcoGpVLZoNfrg4oKCmeLeQFz7vZMTCVWKMSrU81qVVeO0Y6XyobEYkeJe7NHOZ3O3ARzqQYoXYue+mOIu3vE5o8/PTXAcp4BAJg9J31dYGCgpkedD3y5FfhyK/eb1hdD0lzFNfBpq7P/G1t/pqEb6GqFUqm0G8jpdyMAADNmpmwxdreKWreS/zzcp3RhYjRsGj3Y9NOzChAWN0++5mWz/zgClEnmC5apBtovgXYGY/qO8QkJbX/fm7/YXWOgD38KORffxz3r07DyHXm/nI93c3Mz2tvbB1l7AUFtn2Hu7zzbp/VwijF0o6fxlFteAI/ddOGF/3HbOM6bbNt+zHyMbXVc8x3TDEPv5++R/31v/mKx452UlNR86IMjETMeeWj+mF/fsvk3QwYU9NQfQ0/9MRhq87kGPqffQs8nK2H8KBPGjzLNxsLSYDD1xVxsrHQtjN2tMM+ULUK/BgZ5klNSLmzZmFPW3PhJIm61ascUEosdR29yKb8uxkgVwL5bJ8irAtxEou16fZBCofj3xba6OwWipZBYZO+Xe22WJGc0NABrKpYDIcJUpmLg9+Jv8ADeGFSUl6/avDFndWXFsUVoPAWfsHFA2H2iE6vwisCinx9E0YZTSP7VPmTO8CyFao1erw/K25mbYe0FMIYupMXkeewFFH33KNgIC1e78RPA0OmWF8DDpwu/qS+eKbg+wsZhx7/ewXOilf7i2J3O/Mut6NFdgEKhKFu48o2n7ekXLFEqlYbXszdst15eq1b78Q1I+R6EAFBeVm7uUVdZcWyR9ftmJCfPd/S518QIAMAzc9L/8Jc1r52WdDQJ0h+s1A8FNVOxFLZTobtKwi2foQxCoQbXsOHAyLj4+JPaL87e6TOsu3dWYakfir57FPMa3unbXO8uwE8PJjb/fHSo91STPJ4aA0QkoejncV4zBrwX4DNM+L0HXfoQc9Pd35+hE1wbNItCId4LiIuP3+yuF8DzzJz0Py7PemmmT1td71R2Uj/s/GI6npvp3jWZPq4MmV/pzIFAxtCNHt0FREVFFRz64IjjxocuEKVSdQHoAoD4hN4n+8IMWD7lFwOAXq9natXqQQqlssPZubkmwwEASE5J+SowMFAjFlHWD+lb5DohotqmyIeV985ZKBaYZCOSsGTXKM8/1AXcnozTi3gyTGClfmAjklD08xY89Lc0j2MGvBcgkQ+1GZqlqD526AW0tojXI0z560SU+KwVFgq1nAUMnVi0JGOV+0fJYU/U5sk1aR0gZKW+8AmJhUajsdtavL+w1/hHjGtmBGQyGZs8M2VxT3OVeOehPvQaSBQr+Q0IBaT+0F/WB8XFx5/sEbn4a2/Nwsp3+mfm4TPq62cALPHUGLQNmWaOGbibTSgqKJzNxQJsZbSF3zyEtOwxSMseg+GZT2H4smcFr7H/u9yc7uJfG38sQqNigU3EnW8aItYtxx3sVRfmnnKtYxCPWICQiZiM9vZ25bu5uRP6coz9yTUzAgDwTHr6IQBgxdKFfZi2zHqGIh6JPBIV5eUTXl71agYMnWZhBg8r9UNh+2qvG4K3C4FZe5dfdwNgSV+MgbtVi+3t7YMkwSNEJzxpC55oznOzw6ZzKS3LV0isTT2CGHy58Ow56etcPgl2sJcurMUUt6/JeZN1AkWl0VcOiXwoigoK1/b1OPuLa2oEzGkZ66aP4NKF2QeHebzv+CFf2ixjgiKh1WrvDJTJqmenpyX3NJ60LW8OUKDo5y2Y8Vpin/v8HT4BTFxxL9cqy4VcrStNS70NbwwOHfmX/4xHHprvTjaB76Z0+ASw8q2bhT3srJAMe6R/vgC4sTb77QEoFIoyXmTTF+ylC/nqQncIDwcUV4XGhIlIglarTSwqLBwq/q7ryzU1AoD9tAzAtYv2NFWluv2c3bhARXl5+MpXX90fFRVVYBDRsLNSP9QEZ2FK3nK8vD3ULWPAa8MnvjIRL5WtR+OdS8QnO7XWzQNgfOzfRJboRWrD+0qUStX1evaG7R9/emqAO8aAFx0V/bAE1mXilhjFzkEfYQzdYC7VcHUh3a14PXvDVG/t25vVhemJwo7EbFAkJL6D8e7O3L9441i9DcOyDmXW/cITs1I3fX7m/CKMXWmzLoWZ61Hq7owaSC1abTvPYOlaTP/d/fNfz96wXa/XM0/OSt1be/7fMyWjF9hO0GlC0lINpbEK8aGnoQziav35eu6aBu6mrGmKwLm2aDQaY4DgGMcKsdp8sLo6WH/fsVf+irxModipoQGobuA6HWvaQqHVh6LsP3eDtRpfM/XF6Kk/hvMN9V4JOGk0GumWjTlp+4uKtkHq7zCb4AjjR5kAOJkwRKbFRneruaBF9P0uFH0pFIqy17M3TO1rLMCahx+auu+bRv1MxL1oXsYYupAx5EmnTW0tMXQCMWsXC4RhkuYqGGrz8X7+Hrm3j7uvXBcjUFRYOHR51kvnfe5KB2ulG2Dqi1G96h2P8sjDlz1re7NwGnbN6bNfhwFcrvWJWanftnf1KB0ZAgEdWkh+5p6O5qYZLiDp1sH4dR6MpjZUkgeyhetbqrF4+CpcvsI1gSj7z91gAkJh9JOLlkcLvpeXjQBPX42B8aNMxMXHb27X60PEeuorFIoyhVJpt+BWFa06aa8DDgDEJSR82V83kfm6HP28IJ4ha9iNqnWupwsbGrj26dY9LoyfvIKJ99+zcuv2bTeUR3BdjAAATLjn3tLmTr9E/HaB8IAMXci4/Um3hBo8adljUDpwhWAZb4EPHfmXvynPilq12m9ZZta7tbW1M32GTQdr1aSyrzCGbqDxE/Rwpa2X4xMSThwvKXnE5761bj9Z7X5GPxkBHo1GI12WmZVdWVGxyB1jYPwoE4syFj9gLYf9JaDX65kJ99z7fWfAcCUbldq7oluHqKZXsHp2b/iB9wh5bw0Ayv5zNwCulbjYzNf8b/bxp6cGeKpr6A+ueUyA55k56X8w6i7YdB7ihRqeIF5HwMViysvLzQUDUSpV1/t782fFxcdv7jl/gJNbilUjuglj6O4tDqk/hhnJyfNPfPapfPac9NkARNuXe4yL2nFPUSqVBrflyL9w7KaxfeWoDX0Ns9591py2XPPd++Yu0+ZshynDIWYAAIAxxVD+WVjo3adOH7luRoAXD4lVF3oqHhKrIzD6yiHxHYzKsvKHLJfLZDL273vzF6/b8MawgYYfND2n3wK+3AqJmI7BAYyhm8s4nN2Fnk9WmotD3s/fI389e8N2mUzGymSynwB47cZl2urAtpzFxEmTbIMqXsaj2oRfMHbT2L5y7gb3tI0aeq9FS5nvjcA1kw1bw1vdXbl5RdKIycJoskk8NG2C+CzE9ogON/UXsG4ywukFFgCwGYslp6RcmJSUdEdRYeGod3fm/k1bm58IABLfwYDfYHOhjjVsRxPQ1Yoe09NdoVCUTUpP2/BMevoha1ePH4agXQub2gkRJN06bgLJ9ibA0GXumWAZNAsMDNQsWpKx0enOvIQncuRfInzL/OMfn1rr04fvxRi6ez0//nfsaIKxuxUTJyft8t4R953rFhMAuHHn/feO+9knbDxYq85DEl0d8h9Z6nb7rhl/GY+awcIaCrG4gD1q1Wq/8vLy4ZVl5Q/p9frbrXvC8/ABroTEhAMTk5LKne13wj33ljZfRiIz+nnuwupo4lKaljf6z13mIKIlPKF0BQAABAxJREFUUVFRBYEyWXNCYsIBgAuORalUl5110OlPKsrLgzhjYIoZhMRy/Q2aq1w6zzcyFeXlQU+mPqazGy/ifztDt7mBjbm5TVeruZOSNQqFoix5ZsrKGy1ecl2NAAAsy8yat//gB9t8xq60sbrxuuV4b8V5t/a3fvdN2Hllj2AZY+hGzycr8cdXXxmdlp5uqyq6BpQUF4c8P/9Zuz2to6KiChRK5VeqaFVZqFLZqFQqL13vG90VKsrLg3btzH2+orx8QXt7u3JGcvJ8sQq4XxoL5s3/4/GSkrWSAAUwwM+ugebhDbVSqaxWhikvAJyxBoAb/Xe87kbAkdVlmqtQ+sI6t6rZ3i4ANv57s22KrfJNjIlWbrbu4nIt0Wg0Uj4oNFylOieTybpu9Avk/zJ5ubm/PX6seDb/N++J8b+dTCb76Zfs8fBcdyMAeFc89HYBkPOVbY6WOX8IPY0n+y2lRhC/VK5bdsASR52Hir571K0KNrsz+fRKiG36DhLE/2VuCCOQnJJyQaFQlIn1IeS6vDh+v7m3+2uJmHd4uehsRKwp+8DP9EIQBMcNYQSAXvGQWHGPmHjI0MlV7f3+T6MwNmcxVn+7AzXBWfar90zyYH6mF4IgOK6bTsCa5JSUr7ZszNF0Nn4ilGyCEw89/dcazJt4HpevAMXVFpM6DHGtWo0XtgTIZDdU8QZBXG9uiMAgz7LMrHn7i4q2iWnsGUMX0FzF3fhulqkyl2rAfncMxg7tDafbJojrzQ1lBMzioYjJNtWAbtPRBKb5c/Q0VwGGzn4rPyWIXzo3zHAAEEo2JR4YAeZSDaDjdPW8amtGcvL8iZOTDnujAw1B/DdyQ3kCQK94SBqVCqMLLbqYSzVAy1n0tNSYu2FOnDRp5cTJSfsmJSXVkRCHIBxzwxkBoFdnb9nhhYcxdINpOQvjpRoYTa2gAgMDNZOSktbQE58g3OeGNALmDi8mKbGkWwe2pRpsW535xlcoFGWTJidtiEtI8EqzSYL4v8oNaQSA3kyB5TL+xp+RkvLBf4NmmyBuBG5YIwBwlXfn1Orhw1Wqc1EqVQul9giCIAiCIAiCIAiCIAiCIAiCIAiCIAiCIAiCIAiCIAiCIAiCIAiCIAiCIAiCIAiCIAiCIAiCIAiCIAiCIAiCIAiCIAiCIAiCIAiCIAiCIAiCIAiCIAiCIAiCIAiCIAiCIAiCIAiCIAiCIAiCIAiCIAiCIAiCIAiCIAiCIAiCIAiCIAiCIAiCIAiCIAiCIAiCIAiCIAiCIAiCIAiCIAiCIAiCIAiCIAiCIAiCIAiCIAiCIAiCIAiCIAiCIAiCIAiCIAiCIAiCIAiCIAiCIAiCIAiCIAiCIAiCIAiCIAiCIAiCIAiCIAiCIIhryv8HM4L30cKZsjMAAAAASUVORK5CYII=;" vertex="1" parent="1">
          <mxGeometry x="835" y="470" width="90" height="90" as="geometry" />
        </mxCell>
        <mxCell id="ICCVcv-7TyuauT3s8LsY-58" value="" style="endArrow=classic;startArrow=classic;html=1;rounded=0;fontSize=12;startSize=8;endSize=8;curved=1;" edge="1" parent="1">
          <mxGeometry width="50" height="50" relative="1" as="geometry">
            <mxPoint x="880" y="480" as="sourcePoint" />
            <mxPoint x="880" y="430" as="targetPoint" />
          </mxGeometry>
        </mxCell>
      </root>
    </mxGraphModel>
  </diagram>
</mxfile>
